<?xml version='1.0' encoding='UTF-8' standalone='no'?>
<!-- Created with Fritzing (http://www.fritzing.org/) -->
<svg xmlns:svg='http://www.w3.org/2000/svg' xmlns='http://www.w3.org/2000/svg' version='1.2' baseProfile='tiny' x='0in' y='0in' width='3.63678in' height='3.69895in' viewBox='0 0 261.848 266.324' >
<g partID='854180320'><g transform='translate(112.884,136.688)' ><g xmlns="http://www.w3.org/2000/svg" id="breadboard">
 <rect xmlns="http://www.w3.org/2000/svg" id="rect20" fill="#8C8C8C" height="4.81" x="2.521" y="18.958" width="2.16"/>
 <rect xmlns="http://www.w3.org/2000/svg" id="rect22" fill="#8C8C8C" height="4.81" x="9.721" y="18.958" width="2.16"/>
 <rect xmlns="http://www.w3.org/2000/svg" id="rect24" fill="#8C8C8C" height="4.81" x="16.92" y="18.958" width="2.16"/>
 <rect xmlns="http://www.w3.org/2000/svg" id="rect26" fill="#8C8C8C" height="4.81" x="24.121" y="18.958" width="2.158"/>
 <rect xmlns="http://www.w3.org/2000/svg" id="rect28" fill="#8C8C8C" height="4.81" x="2.521" y="0.008" width="2.16"/>
 <rect xmlns="http://www.w3.org/2000/svg" id="rect30" fill="#8C8C8C" height="4.81" x="9.721" y="0.008" width="2.16"/>
 <rect xmlns="http://www.w3.org/2000/svg" id="rect32" fill="#8C8C8C" height="4.81" x="16.92" y="0.008" width="2.16"/>
 <rect xmlns="http://www.w3.org/2000/svg" id="rect34" fill="#8C8C8C" height="4.81" x="24.121" y="0.008" width="2.158"/>
 <polygon xmlns="http://www.w3.org/2000/svg" id="polygon36" fill="#3D3D3D" points="0,2.168,28.801,2.168,28.26,8.287,0,8.287"/>
 <polygon xmlns="http://www.w3.org/2000/svg" id="polygon38" points="0,15.487,28.26,15.487,28.801,21.607,0,21.607"/>
 <polygon xmlns="http://www.w3.org/2000/svg" id="polygon40" fill="#8C8C8C" points="6.121,3.133,6.121,2.354,4.681,1.692,2.521,1.692,2.521,3.133"/>
 <polygon xmlns="http://www.w3.org/2000/svg" id="polygon42" fill="#8C8C8C" points="13.32,3.133,13.32,2.354,11.88,1.692,9.721,1.692,8.28,2.354,8.28,3.133"/>
 <polygon xmlns="http://www.w3.org/2000/svg" id="polygon44" fill="#8C8C8C" points="26.279,3.133,26.279,1.692,24.121,1.692,22.682,2.354,22.682,3.133"/>
 <polygon xmlns="http://www.w3.org/2000/svg" id="polygon46" fill="#8C8C8C" points="20.521,3.133,20.521,2.354,19.08,1.692,16.92,1.692,15.48,2.354,15.48,3.133"/>
 <polygon xmlns="http://www.w3.org/2000/svg" id="polygon48" fill="#8C8C8C" points="2.521,20.643,2.521,22.083,4.681,22.083,6.121,21.42,6.121,20.643"/>
 <polygon xmlns="http://www.w3.org/2000/svg" id="polygon50" fill="#8C8C8C" points="22.682,20.643,22.682,21.42,24.121,22.083,26.279,22.083,26.279,20.643"/>
 <polygon xmlns="http://www.w3.org/2000/svg" id="polygon52" fill="#8C8C8C" points="8.28,20.643,8.28,21.42,9.721,22.083,11.88,22.083,13.32,21.42,13.32,20.643"/>
 <polygon xmlns="http://www.w3.org/2000/svg" id="polygon54" fill="#8C8C8C" points="15.48,20.643,15.48,21.42,16.92,22.083,19.08,22.083,20.521,21.42,20.521,20.643"/>
 <polygon xmlns="http://www.w3.org/2000/svg" id="polygon56" fill="#141414" points="28.801,2.168,28.26,3.938,27.255,3.938,27.255,19.829,28.26,19.836,28.801,21.607"/>
 <polygon xmlns="http://www.w3.org/2000/svg" id="polygon58" fill="#1F1F1F" points="0,2.168,0.541,3.938,0.541,8.287,3.601,8.287,3.601,15.487,0.541,15.487,0.541,19.836,0,21.607"/>
 <polygon xmlns="http://www.w3.org/2000/svg" id="polygon60" fill="#1C1C1C" points="3.601,8.287,0.541,8.259,0.404,9.785,0.404,11.88,3.601,11.88"/>
 <polygon xmlns="http://www.w3.org/2000/svg" id="polygon62" fill="#383838" points="0.541,15.523,3.601,15.523,3.601,11.88,0.404,11.88,0.404,13.99"/>
 <path xmlns="http://www.w3.org/2000/svg" id="path64" fill="#303030" d="M0.541,3.938l0,4.313c1.713,0.321,3.017,1.819,3.017,3.628c0,1.808,-1.296,3.313,-3.017,3.637l0,4.313L28.26,19.829L28.26,3.938L0.541,3.938z"/>
 <path xmlns="http://www.w3.org/2000/svg" id="path66" fill="#262626" d="M0.404,9.785l0,4.195C1.462,13.86,2.29,12.975,2.29,11.88C2.29,10.786,1.469,9.906,0.404,9.785z"/>
 <circle xmlns="http://www.w3.org/2000/svg" id="circle68" fill="#212121" cx="4.681" cy="16.906" r="1.483"/>
</g>
</g></g><g partID='854180580'><g transform='translate(153.848,57.6591)' ><g transform="matrix(1, 0, 0, 1, 0, 7.2)">
<g id="breadboard">
<g transform="matrix(0, -1, 1, 0, 7.2, 100.8)">
<g>
<g transform="matrix(1, 0, 0, 1, 0, -741.088)">
<path id="rect10256" stroke-width="0.144" fill="#165c7a" fill-opacity="1" stroke="#000000" d="m0,831.088c0,5.9832,4.8168,10.8,10.8,10.8l86.4,0c5.9832,0,10.8,-4.8168,10.8,-10.8l0,-86.4c0,-5.9832,-4.8168,-10.8,-10.8,-10.8l-86.4,0c-5.9832,0,-10.8,4.8168,-10.8,10.8l0,86.4zm6.475,0c0,-2.38584,1.93913,-4.32496,4.325,-4.32496,2.38587,0,4.325,1.93912,4.325,4.32496,0,2.38584,-1.93913,4.32504,-4.325,4.32504,-2.38587,0,-4.325,-1.9392,-4.325,-4.32504zm0,-86.375c0,-2.38587,1.93913,-4.325,4.325,-4.325,2.38587,0,4.325,1.93913,4.325,4.325,0,2.38587,-1.93913,4.325,-4.325,4.325,-2.38587,0,-4.325,-1.93913,-4.325,-4.325zM92.9,831.088c0,-2.38584,1.93913,-4.32496,4.325,-4.32496,2.38587,0,4.325,1.93912,4.325,4.32496,0,2.38584,-1.93913,4.32504,-4.325,4.32504,-2.38587,0,-4.325,-1.9392,-4.325,-4.32504zm0,-86.375c0,-2.38587,1.93913,-4.325,4.325,-4.325,2.38587,0,4.325,1.93913,4.325,4.325,0,2.38587,-1.93913,4.325,-4.325,4.325,-2.38587,0,-4.325,-1.93913,-4.325,-4.325z" style="stroke-miterlimit:4;stroke-dasharray:none;display:inline" stroke-opacity="1"/>
</g>
<g transform="matrix(0, -1, 1, 0, 0, -741.088)">
<rect id="connector1pin" fill="url(#radialGradient12992)" fill-opacity="1" stroke="none" height="8.27999" rx="2.304" x="-804.628" y="3.06001" style="display:inline" width="4.68"/>
</g>
<g transform="matrix(0, -1, 1, 0, 0, -741.088)">
<rect id="connector2pin" fill="url(#radialGradient12994)" fill-opacity="1" stroke="none" height="8.27999" rx="2.304" x="-797.414" y="3.06001" style="display:inline" width="4.68"/>
</g>
<g transform="matrix(0, -1, 1, 0, 0, -741.088)">
<rect id="connector3pin" fill="url(#radialGradient12996)" fill-opacity="1" stroke="none" height="8.27999" rx="2.304" x="-790.214" y="3.06001" style="display:inline" width="4.68"/>
</g>
<g transform="matrix(0, -1, 1, 0, 0, -741.088)">
<rect id="connector4pin" fill="url(#radialGradient12998)" fill-opacity="1" stroke="none" height="8.27999" rx="2.304" x="-783.014" y="3.06001" style="display:inline" width="4.68"/>
</g>
<g transform="matrix(0, -1, 1, 0, 0, -741.088)">
<rect id="connector5pin" fill="url(#radialGradient13000)" fill-opacity="1" stroke="none" height="8.27999" rx="2.304" x="-775.814" y="3.06001" style="display:inline" width="4.68"/>
</g>
<g transform="matrix(-1, 0, 0, -1, 14.4, 834.688)">
<g id="g11355" style="display:inline">
<g transform="matrix(0, -1, 1, 0, -252, 841.888)">
<g id="g10980" style="display:inline">
<rect id="rect9275" fill="#decd87" fill-opacity="1" stroke="none" height="2.16" x="38.52" y="258.12" style="fill-rule:evenodd;display:inline" width="2.16"/>
<path id="path9277" stroke-width="0.36" fill="#ffeeaa" stroke="none" d="m38.52,260.28,0.27,-0.27,0,-1.62,1.62,0,0.27,-0.27,-2.16,0z" style="color:#000000;marker:none;visibility:visible;display:inline;overflow:visible;enable-background:accumulate"/>
<path id="path9279" stroke-width="0.36" fill="#c8ab37" stroke="none" d="m40.68,258.12,-0.27,0.27,0,1.62,-1.62,0,-0.27,0.27,2.16,0z" style="color:#000000;marker:none;visibility:visible;display:inline;overflow:visible;enable-background:accumulate"/>
</g>
</g>
<g transform="matrix(0, -1, 1, 0, -252, 834.688)">
<g id="g10985" style="display:inline">
<rect id="rect10987" fill="#decd87" fill-opacity="1" stroke="none" height="2.16" x="38.52" y="258.12" style="fill-rule:evenodd;display:inline" width="2.16"/>
<path id="path10989" stroke-width="0.36" fill="#ffeeaa" stroke="none" d="m38.52,260.28,0.27,-0.27,0,-1.62,1.62,0,0.27,-0.27,-2.16,0z" style="color:#000000;marker:none;visibility:visible;display:inline;overflow:visible;enable-background:accumulate"/>
<path id="path10991" stroke-width="0.36" fill="#c8ab37" stroke="none" d="m40.68,258.12,-0.27,0.27,0,1.62,-1.62,0,-0.27,0.27,2.16,0z" style="color:#000000;marker:none;visibility:visible;display:inline;overflow:visible;enable-background:accumulate"/>
</g>
</g>
<g transform="matrix(0, -1, 1, 0, -252, 827.488)">
<g id="g10993" style="display:inline">
<rect id="rect10995" fill="#decd87" fill-opacity="1" stroke="none" height="2.16" x="38.52" y="258.12" style="fill-rule:evenodd;display:inline" width="2.16"/>
<path id="path10997" stroke-width="0.36" fill="#ffeeaa" stroke="none" d="m38.52,260.28,0.27,-0.27,0,-1.62,1.62,0,0.27,-0.27,-2.16,0z" style="color:#000000;marker:none;visibility:visible;display:inline;overflow:visible;enable-background:accumulate"/>
<path id="path10999" stroke-width="0.36" fill="#c8ab37" stroke="none" d="m40.68,258.12,-0.27,0.27,0,1.62,-1.62,0,-0.27,0.27,2.16,0z" style="color:#000000;marker:none;visibility:visible;display:inline;overflow:visible;enable-background:accumulate"/>
</g>
</g>
<g transform="matrix(0, -1, 1, 0, -252, 820.288)">
<g id="g11001" style="display:inline">
<rect id="rect11003" fill="#decd87" fill-opacity="1" stroke="none" height="2.16" x="38.52" y="258.12" style="fill-rule:evenodd;display:inline" width="2.16"/>
<path id="path11005" stroke-width="0.36" fill="#ffeeaa" stroke="none" d="m38.52,260.28,0.27,-0.27,0,-1.62,1.62,0,0.27,-0.27,-2.16,0z" style="color:#000000;marker:none;visibility:visible;display:inline;overflow:visible;enable-background:accumulate"/>
<path id="path11007" stroke-width="0.36" fill="#c8ab37" stroke="none" d="m40.68,258.12,-0.27,0.27,0,1.62,-1.62,0,-0.27,0.27,2.16,0z" style="color:#000000;marker:none;visibility:visible;display:inline;overflow:visible;enable-background:accumulate"/>
</g>
</g>
<g transform="matrix(0, -1, 1, 0, -252, 813.088)">
<g id="g11009" style="display:inline">
<rect id="rect11011" fill="#decd87" fill-opacity="1" stroke="none" height="2.16" x="38.52" y="258.12" style="fill-rule:evenodd;display:inline" width="2.16"/>
<path id="path11013" stroke-width="0.36" fill="#ffeeaa" stroke="none" d="m38.52,260.28,0.27,-0.27,0,-1.62,1.62,0,0.27,-0.27,-2.16,0z" style="color:#000000;marker:none;visibility:visible;display:inline;overflow:visible;enable-background:accumulate"/>
<path id="path11015" stroke-width="0.36" fill="#c8ab37" stroke="none" d="m40.68,258.12,-0.27,0.27,0,1.62,-1.62,0,-0.27,0.27,2.16,0z" style="color:#000000;marker:none;visibility:visible;display:inline;overflow:visible;enable-background:accumulate"/>
</g>
</g>
</g>
</g>
<g transform="matrix(1, 0, 0, 1, 0, -741.088)">
<g id="text11405" fill="#ffffff" fill-opacity="1" stroke="none" font-size="0" xml:space="preserve" xmlns:xml="http://www.w3.org/XML/1998/namespace" style="font-style:normal;font-variant:normal;font-weight:normal;font-stretch:normal;text-align:center;line-height:125%;letter-spacing:0px;word-spacing:0px;text-anchor:middle;display:inline;font-family:OCR A Std;-inkscape-font-specification:OCR A Std">
<text id="tspan11407" font-size="0" x="54" y="820.288">SEL shorts to ground when pressed</text>
</g>
</g>
<g transform="matrix(1, 0, 0, 1, 0, -741.088)">
<g id="text11409" fill="#ffffff" fill-opacity="1" stroke="none" font-size="0" xml:space="preserve" xmlns:xml="http://www.w3.org/XML/1998/namespace" style="font-style:normal;font-variant:normal;font-weight:normal;font-stretch:normal;text-align:center;line-height:125%;letter-spacing:0px;word-spacing:0px;text-anchor:middle;display:inline;font-family:OCR A Std;-inkscape-font-specification:OCR A Std">
<text id="tspan11411" font-size="0" x="54" y="826.408">X and Y act like 10k pots</text>
</g>
</g>
<g transform="matrix(1, 0, 0, 1, 0, -741.088)">
<g id="text11413" fill="#ffffff" fill-opacity="1" stroke="none" font-size="0" xml:space="preserve" xmlns:xml="http://www.w3.org/XML/1998/namespace" style="font-style:normal;font-variant:normal;font-weight:normal;font-stretch:normal;text-align:center;line-height:125%;letter-spacing:0px;word-spacing:0px;text-anchor:middle;display:inline;font-family:OCR A Std;-inkscape-font-specification:OCR A Std">
<text id="tspan11415" x="54" y="832.888">Xout and Yout are Analog out</text>
</g>
</g>
<g transform="matrix(1, 0, 0, 1, 0, -741.088)">
<g id="text11477" fill="#ffffff" fill-opacity="1" stroke="none" font-size="0" xml:space="preserve" xmlns:xml="http://www.w3.org/XML/1998/namespace" style="font-style:normal;font-variant:normal;font-weight:normal;font-stretch:normal;text-align:start;line-height:125%;letter-spacing:0px;word-spacing:0px;text-anchor:start;display:inline;font-family:OCR A Std;-inkscape-font-specification:OCR A Std">
<text id="tspan11479" x="11.16" y="774.568">Vcc</text>
</g>
</g>
<g transform="matrix(1, 0, 0, 1, 0, -741.088)">
<g id="text11481" fill="#ffffff" fill-opacity="1" stroke="none" font-size="0" xml:space="preserve" xmlns:xml="http://www.w3.org/XML/1998/namespace" style="font-style:normal;font-variant:normal;font-weight:normal;font-stretch:normal;text-align:start;line-height:125%;letter-spacing:0px;word-spacing:0px;text-anchor:start;display:inline;font-family:OCR A Std;-inkscape-font-specification:OCR A Std">
<text id="tspan11483" x="11.16" y="781.768">Xout</text>
</g>
</g>
<g transform="matrix(1, 0, 0, 1, 0, -741.088)">
<g id="text11485" fill="#ffffff" fill-opacity="1" stroke="none" font-size="0" xml:space="preserve" xmlns:xml="http://www.w3.org/XML/1998/namespace" style="font-style:normal;font-variant:normal;font-weight:normal;font-stretch:normal;text-align:start;line-height:125%;letter-spacing:0px;word-spacing:0px;text-anchor:start;display:inline;font-family:OCR A Std;-inkscape-font-specification:OCR A Std">
<text id="tspan11487" x="11.16" y="788.968">Yout</text>
</g>
</g>
<g transform="matrix(1, 0, 0, 1, 0, -741.088)">
<g id="text11489" fill="#ffffff" fill-opacity="1" stroke="none" font-size="0" xml:space="preserve" xmlns:xml="http://www.w3.org/XML/1998/namespace" style="font-style:normal;font-variant:normal;font-weight:normal;font-stretch:normal;text-align:start;line-height:125%;letter-spacing:0px;word-spacing:0px;text-anchor:start;display:inline;font-family:OCR A Std;-inkscape-font-specification:OCR A Std">
<text id="tspan11491" x="11.16" y="796.168">Sel</text>
</g>
</g>
<g transform="matrix(1, 0, 0, 1, 0, -741.088)">
<g id="text11493" fill="#ffffff" fill-opacity="1" stroke="none" font-size="0" xml:space="preserve" xmlns:xml="http://www.w3.org/XML/1998/namespace" style="font-style:normal;font-variant:normal;font-weight:normal;font-stretch:normal;text-align:start;line-height:125%;letter-spacing:0px;word-spacing:0px;text-anchor:start;display:inline;font-family:OCR A Std;-inkscape-font-specification:OCR A Std">
<text id="tspan11495" x="11.16" y="803.368">GND</text>
</g>
</g>
<g transform="matrix(1, 0, 0, 1, 0, -7.2)">
<path id="path11497" fill="#c8c8c8" fill-opacity="1" stroke="none" d="m70.7,39.6c-1.27642,0,-2.3,1.02358,-2.3,2.3l0,24.2c0,1.27642,1.02358,2.3,2.3,2.3l18.25,0c1.82849,-4.4366,2.85,-9.30354,2.85,-14.4,0,-5.09646,-1.02151,-9.9634,-2.85,-14.4l-18.25,0z" style="display:inline"/>
</g>
<g transform="matrix(0, 1, -1, 0, 108, -7.2)">
<path id="path10829" stroke-width="0.144" fill="url(#radialGradient13002)" fill-opacity="1" stroke="#000000" d="m90,54a36,36,0,1,1,-72,0,36,36,0,1,1,72,0z" style="stroke-linecap:round;stroke-linejoin:round;stroke-miterlimit:4;stroke-dasharray:none;stroke-dashoffset:0;display:inline" stroke-opacity="1"/>
</g>
<g transform="matrix(0, 1, -1, 0, 108, -7.2)">
<path id="path10851" stroke-width="0.144" fill="url(#linearGradient13004)" fill-opacity="1" stroke="#000000" d="m90,54a36,36,0,1,1,-72,0,36,36,0,1,1,72,0z" style="stroke-linecap:round;stroke-linejoin:round;stroke-miterlimit:4;stroke-dasharray:none;stroke-dashoffset:0;display:inline" stroke-opacity="1"/>
</g>
<g transform="matrix(0, 1, -1, 0, 108, -7.2)">
<path id="path10880" stroke-width="0.144" fill="url(#radialGradient13006)" fill-opacity="1" stroke="#000000" d="m79.2,54a25.2,25.2,0,1,1,-50.4,0,25.2,25.2,0,1,1,50.4,0z" style="stroke-linecap:round;stroke-linejoin:round;stroke-miterlimit:4;stroke-dasharray:none;stroke-dashoffset:0;display:inline" stroke-opacity="1"/>
</g>
<g transform="matrix(0, 1, -1, 0, 108, -7.2)">
<path id="path10890" stroke-width="0.144" fill="url(#linearGradient13008)" fill-opacity="1" stroke="url(#linearGradient13010)" d="m79.2,54a25.2,25.2,0,1,1,-50.4,0,25.2,25.2,0,1,1,50.4,0z" style="stroke-linecap:round;stroke-linejoin:round;stroke-miterlimit:4;stroke-dasharray:none;stroke-dashoffset:0;display:inline" stroke-opacity="1"/>
</g>
<g id="text11424" fill="#ffffff" fill-opacity="1" stroke="none" font-size="0" xml:space="preserve" xmlns:xml="http://www.w3.org/XML/1998/namespace" style="font-style:normal;font-variant:normal;font-weight:normal;font-stretch:normal;text-align:end;line-height:125%;letter-spacing:0px;word-spacing:0px;text-anchor:end;font-family:OCR A Std;-inkscape-font-specification:OCR A Std">
<text id="tspan11426" font-size="0" x="94.32" y="20.52">X</text>
</g>
<g id="text11428" fill="#ffffff" fill-opacity="1" stroke="none" font-size="0" xml:space="preserve" xmlns:xml="http://www.w3.org/XML/1998/namespace" style="font-style:normal;font-variant:normal;font-weight:normal;font-stretch:normal;text-align:start;line-height:125%;letter-spacing:0px;word-spacing:0px;text-anchor:start;font-family:OCR A Std;-inkscape-font-specification:OCR A Std">
<text id="tspan11430" font-size="0" x="79.92" y="12.6">Y</text>
</g>
<g transform="matrix(1, 0, 0, 1, 0, -7.2)">
<path id="path11434" stroke-width="0.72" fill="none" stroke="#ffffff" d="M77.4,12.6,79.2,10.8l1.8,1.8M79.2,25.2l0,-14.4" style="color:#000000;stroke-linecap:round;stroke-linejoin:round;stroke-miterlimit:4;stroke-dasharray:none;stroke-dashoffset:0;marker:none;visibility:visible;display:inline;overflow:visible;enable-background:accumulate" stroke-opacity="1"/>
</g>
<path id="path11437" stroke-width="0.72" fill="none" stroke="#ffffff" d="m95.4,19.8,1.8,1.8,-1.8,1.8M82.8,21.6l14.4,0" style="color:#000000;stroke-linecap:round;stroke-linejoin:round;stroke-miterlimit:4;stroke-dasharray:none;stroke-dashoffset:0;marker:none;visibility:visible;display:inline;overflow:visible;enable-background:accumulate" stroke-opacity="1"/>
<g id="text11439" fill="#ffffff" fill-opacity="1" stroke="none" font-size="0" xml:space="preserve" xmlns:xml="http://www.w3.org/XML/1998/namespace" style="font-style:normal;font-variant:normal;font-weight:normal;font-stretch:normal;text-align:start;line-height:125%;letter-spacing:0px;word-spacing:0px;text-anchor:start;font-family:OCR A Std;-inkscape-font-specification:OCR A Std">
<text id="tspan11441" x="30.6" y="-1.8">Analog Thumb Joystick</text>
</g>
<g id="text11443" fill="#ffffff" fill-opacity="1" stroke="none" font-size="0" xml:space="preserve" xmlns:xml="http://www.w3.org/XML/1998/namespace" style="font-style:normal;font-variant:normal;font-weight:normal;font-stretch:normal;text-align:start;line-height:125%;letter-spacing:0px;word-spacing:0px;text-anchor:start;font-family:OCR A Std;-inkscape-font-specification:OCR A Std">
<text id="tspan11445" x="30.6" y="3.6">Breakout Board</text>
</g>
<path id="path12631" fill="#ffffff" fill-opacity="1" stroke="none" d="m30.4025,-0.622706c-0.028368,-0.177903,-0.124738,-0.228449,-0.357128,-0.303034,-0.176695,-0.0564936,-1.36014,-0.433584,-1.36014,-0.433584,0,0,-0.824431,-0.311334,-1.43589,0.129258,-0.0824224,0.0591712,-0.167435,0.126802,-0.25329,0.199036,0.072128,-0.0858698,0.139485,-0.171195,0.198749,-0.253629,0.439343,-0.612128,0.126475,-1.43623,0.126475,-1.43623,0,0,-0.379058,-1.18263,-0.436029,-1.35926,-0.075048,-0.23239,-0.125754,-0.328541,-0.30351,-0.356449,-0.177713,-0.0280568,-0.255679,0.0479256,-0.398274,0.246025,-0.108495,0.150512,-0.832756,1.15939,-0.832756,1.15939,0,0,-0.550865,0.688097,-0.320838,1.40569,0.030896,0.0966789,0.068872,0.198519,0.111157,0.302464,-0.059496,-0.0952256,-0.119794,-0.18563,-0.179877,-0.26744,-0.446551,-0.606884,-1.32681,-0.564175,-1.32681,-0.564175,0,0,-1.24188,-0.004928,-1.42757,-0.00536,-0.244055,-0.00045824,-0.351206,0.0180984,-0.432796,0.178393,-0.0816096,0.160439,-0.033256,0.258029,0.110938,0.454878,0.109593,0.149738,0.845331,1.15035,0.845331,1.15035,0,0,0.484294,0.736499,1.23764,0.739608,0.10123,0.000458136,0.209738,-0.0041528,0.321313,-0.0121644,-0.108614,0.0270378,-0.213062,0.0564389,-0.309062,0.088259,-0.715286,0.237169,-0.946614,1.08759,-0.946614,1.08759,0,0,-0.388417,1.1796,-0.446268,1.35598,-0.075856,0.231968,-0.0913552,0.339675,0.03592,0.466774,0.127441,0.127127,0.23505,0.111524,0.466898,0.0351472,0.176385,-0.0579208,1.35524,-0.448495,1.35524,-0.448495,0,0,0.850112,-0.233029,1.08584,-0.948733,0.031664,-0.0960419,0.060816,-0.200177,0.087684,-0.308698,-0.0076,0.111414,-0.012056,0.219609,-0.011504,0.320864,0.00456,0.753433,0.74181,1.23634,0.74181,1.23634,0,0,1.00185,0.733782,1.15164,0.843349,0.197257,0.143736,0.294859,0.191769,0.455148,0.109975,0.160374,-0.0818085,0.178653,-0.189069,0.177635,-0.433218,-0.000676,-0.185522,-0.00776,-1.42747,-0.00776,-1.42747,0,0,0.041248,-0.880354,-0.566566,-1.32573,-0.0817192,-0.0597672,-0.171915,-0.119943,-0.267031,-0.179085,0.103834,0.0419928,0.205485,0.0796096,0.301948,0.110165,0.717986,0.228788,1.40502,-0.323258,1.40502,-0.323258,0,0,1.00778,-0.725986,1.15806,-0.834873,0.197675,-0.143044,0.273563,-0.221132,0.245289,-0.39867zM26.1252,-1.53711c0.135438,0.02126,0.202687,0.309391,0.149981,0.643417,-0.052472,0.334012,-0.204956,0.587464,-0.340488,0.56617,-0.13552,-0.0214202,-0.202732,-0.30943,-0.15008,-0.643442,0.052592,-0.334094,0.204998,-0.587657,0.340587,-0.566145zm-1.7348,0.885774c0.062224,-0.122293,0.356868,-0.0971408,0.658328,0.0561822,0.301434,0.153202,0.495415,0.376575,0.433325,0.498675,-0.062248,0.122362,-0.356907,0.0971966,-0.658436,-0.0559099,-0.301444,-0.15331,-0.495387,-0.376669,-0.433217,-0.498948zm0.914794,1.66585c-0.238906,0.239262,-0.511318,0.354735,-0.608459,0.257757,-0.0969744,-0.0967584,0.018096,-0.369388,0.256998,-0.608744,0.238825,-0.239383,0.51121,-0.354859,0.608286,-0.257867,0.0969736,0.0968709,-0.017968,0.369484,-0.256824,0.608854zm1.3158,0.560859C26.4988,1.63774,26.2752,1.44419,26.1215,1.143,25.9676,0.841895,25.9419,0.54701,26.0641,0.484647c0.122062,-0.0622641,0.345747,0.131379,0.499571,0.432377,0.153827,0.301107,0.179506,0.595885,0.057368,0.658354zm0.317226,-1.39485c-0.333957,0.0532219,-0.622162,-0.013493,-0.643798,-0.148842,-0.0214,-0.135521,0.231768,-0.288464,0.565617,-0.341521,0.334064,-0.0533466,0.622161,0.0133564,0.643673,0.148881,0.021632,0.135262,-0.231546,0.288288,-0.565492,0.341482z" style="overflow:visible"/>
</g>
</g>
</g>
</g>
</g></g><path stroke='#8c8c8c' stroke-width='2.15136' stroke-linecap='round' stroke-linejoin='round' fill='none' d='M21.7899,29.7402L21.7899,54.3562' />
<path stroke='#8c8c8c' stroke-width='2.15136' stroke-linecap='round' stroke-linejoin='round' fill='none' d='M28.992,29.7402L28.992,54.3562' />
<g partID='854180640'><g transform='translate(17.2632,0.53336)' ><g xmlns="http://www.w3.org/2000/svg" id="breadboard">
 <rect xmlns="http://www.w3.org/2000/svg" id="connector0pin" fill="none" height="0.72" x="3.45096" y="25.421" width="2.15208"/>
 <rect xmlns="http://www.w3.org/2000/svg" id="connector1pin" fill="none" height="0.72" x="10.651" y="25.421" width="2.15424"/>
 <g xmlns="http://www.w3.org/2000/svg" id="connector0leg" stroke-width="2.15136" fill="none" y1="40.565" y2="74.754" stroke="#8C8C8C" x1="6.287" x2="6.287" stroke-linecap="round"/>
 <g xmlns="http://www.w3.org/2000/svg" id="connector1leg" stroke-width="2.15136" fill="none" y1="40.565" y2="74.754" stroke="#8C8C8C" x1="16.29" x2="16.29" stroke-linecap="round"/>
 <rect xmlns="http://www.w3.org/2000/svg" fill="#8C8C8C" height="9.82728" x="3.45096" y="19.3795" width="2.15136"/>
 <path xmlns="http://www.w3.org/2000/svg" fill="#8C8C8C" d="M12.8045,29.2068c0,-1.1736,-1.06488,-2.1024,-2.088,-2.9916c-0.41616,-0.3672,-1.19952,-1.00152,-1.19952,-1.42488l0,-5.47056l-2.16144,0l0,5.78016c0,1.0584,0.94752,1.87848,1.94616,2.74824c0.44424,0.37584,1.34856,1.24992,1.34856,1.76976"/>
 <g xmlns="http://www.w3.org/2000/svg" id="g12">
  <path xmlns="http://www.w3.org/2000/svg" id="color_path14" fill="#e60000" d="M14.1732,13.001L14.1732,7.0884C14.1732,3.1752,11.0052,0,7.08768,0C3.1752,0,0,3.16944,0,7.0884l0,13.649c1.47384,1.65096,4.0968,2.75256,7.08768,2.75256c4.61952,0,8.36856,-2.61792,8.36856,-5.85936l0,-1.52352C15.4555,14.9645,14.9818,13.9032,14.1732,13.001z" opacity="0.3"/>
  <path xmlns="http://www.w3.org/2000/svg" id="path16" fill="#E6E6E6" d="M14.1732,13.001L14.1732,7.0884C14.1732,3.1752,11.0052,0,7.08768,0C3.1752,0,0,3.16944,0,7.0884l0,13.649c1.47384,1.65096,4.0968,2.75256,7.08768,2.75256c4.61952,0,8.36856,-2.61792,8.36856,-5.85936l0,-1.52352C15.4555,14.9645,14.9818,13.9032,14.1732,13.001z" opacity="0.5"/>
  <path xmlns="http://www.w3.org/2000/svg" id="path18" fill="#D1D1D1" d="M14.1732,13.001l0,3.10536c0,2.73888,-3.16584,4.96512,-7.08552,4.96512C3.1752,21.0715,0,18.8525,0,16.1064l0,3.10536L0,20.736c1.47384,1.65168,4.0968,2.75256,7.08768,2.75256c4.61952,0,8.36856,-2.61792,8.36856,-5.85864L15.4562,16.1064C15.4555,14.9645,14.9818,13.9032,14.1732,13.001z" opacity="0.9"/>
  <path xmlns="http://www.w3.org/2000/svg" id="color_path20" fill="#e60000" d="M14.1732,13.001l0,3.10536c0,2.73888,-3.16584,4.96512,-7.08552,4.96512C3.1752,21.0715,0,18.8525,0,16.1064l0,3.10536L0,20.736c1.47384,1.65168,4.0968,2.75256,7.08768,2.75256c4.61952,0,8.36856,-2.61792,8.36856,-5.85864L15.4562,16.1064C15.4555,14.9645,14.9818,13.9032,14.1732,13.001z" opacity="0.7"/>
  <path xmlns="http://www.w3.org/2000/svg" id="color_path22" fill="#e60000" d="M14.1732,13.001l0,3.10536c0,2.73888,-3.16584,4.96512,-7.08552,4.96512C3.1752,21.0715,0,18.8525,0,16.1064l0,3.10536c1.47384,1.65024,4.0968,2.75256,7.08768,2.75256c4.61952,0,8.36856,-2.61792,8.36856,-5.85864C15.4555,14.9645,14.9818,13.9032,14.1732,13.001z" opacity="0.25"/>
  <ellipse xmlns="http://www.w3.org/2000/svg" id="ellipse24" fill="#E6E6E6" cx="7.08768" cy="16.1064" rx="7.08696" ry="4.9608" opacity="0.25"/>
  <ellipse xmlns="http://www.w3.org/2000/svg" id="color_ellipse26" fill="#e60000" cx="7.08768" cy="16.1064" rx="7.08696" ry="4.9608" opacity="0.25"/>
  <polygon xmlns="http://www.w3.org/2000/svg" id="polygon28" fill="#666666" points="2.2032,9.648,2.2032,16.1071,3.19608,16.1071,3.19608,13.0946,6.0156,13.0946,10.0123,8.80488,3.40704,8.80488"/>
  <polygon xmlns="http://www.w3.org/2000/svg" id="polygon30" fill="#666666" points="10.7784,8.52408,11.2147,9.03384,7.41168,13.0946,11.0599,13.0946,11.0599,16.1071,11.9736,16.1071,11.9736,8.52408"/>
  <path xmlns="http://www.w3.org/2000/svg" id="color_path32" fill="#e60000" d="M14.1732,13.001L14.1732,7.0884C14.1732,3.1752,11.0052,0,7.08768,0C3.1752,0,0,3.16944,0,7.0884l0,13.649c1.47384,1.65096,4.0968,2.75256,7.08768,2.75256c4.61952,0,8.36856,-2.61792,8.36856,-5.85936l0,-1.52352C15.4555,14.9645,14.9818,13.9032,14.1732,13.001z" opacity="0.65"/>
  <path xmlns="http://www.w3.org/2000/svg" id="path34" fill="#FFFFFF" d="M10.3882,3.75408l1.4364,-0.2736c-0.84168,-1.13184,-2.08224,-1.95768,-3.54168,-2.23848l0.25416,1.08072C9.30096,2.59344,9.94392,3.1032,10.3882,3.75408z" opacity="0.5"/>
  <path xmlns="http://www.w3.org/2000/svg" id="path36" fill="#FFFFFF" d="M0.76824,19.926l0,1.51992c0.64872,0.5292,1.43352,0.97632,2.3076,1.31688l0,-1.52496C2.19744,20.9016,1.41912,20.4559,0.76824,19.926z" opacity="0.5"/>
  <path xmlns="http://www.w3.org/2000/svg" id="path38" fill="#FFFFFF" d="M11.0729,20.2097c-0.2556,0.1224,-0.52992,0.22968,-0.80568,0.32976c-0.05832,0.01944,-0.11736,0.04032,-0.17784,0.05832c-0.56376,0.17928,-1.16136,0.31896,-1.79496,0.39456c-0.07488,0.00936,-0.1512,0.01872,-0.22464,0.01944c-0.3204,0.03024,-0.64368,0.05832,-0.97056,0.05832c-0.14832,0,-0.30744,-0.01512,-0.4716,-0.02376c-1.20024,-0.05688,-2.33064,-0.31464,-3.2976,-0.73944L3.33,11.9174L3.33,7.092c0,-1.47096,0.84816,-2.72952,2.0736,-3.34944L5.38128,3.68928l-1.24776,-1.512c-1.66968,1.00296,-2.79,2.8224,-2.79,4.91184l0,11.9052c-0.04968,-0.04968,-0.30816,-0.30888,-0.48024,-0.52992l-0.30744,0.6876c1.40112,1.48176,3.8088,2.46168,6.54264,2.46168c1.67976,0,3.23712,-0.37368,4.51152,-1.00224l-0.52704,-0.40896C11.0729,20.2097,11.0729,20.2097,11.0729,20.2097z" opacity="0.5"/>
 </g>
</g>
</g></g><path stroke='#8c8c8c' stroke-width='2.15136' stroke-linecap='round' stroke-linejoin='round' fill='none' d='M39.2323,29.2068L39.2323,53.8229' />
<path stroke='#8c8c8c' stroke-width='2.15136' stroke-linecap='round' stroke-linejoin='round' fill='none' d='M46.4344,29.2068L46.4344,53.8229' />
<g partID='854180670'><g transform='translate(34.7056,0)' ><g xmlns="http://www.w3.org/2000/svg" id="breadboard">
 <rect xmlns="http://www.w3.org/2000/svg" id="connector0pin" fill="none" height="0.72" x="3.45096" y="25.421" width="2.15208"/>
 <rect xmlns="http://www.w3.org/2000/svg" id="connector1pin" fill="none" height="0.72" x="10.651" y="25.421" width="2.15424"/>
 <g xmlns="http://www.w3.org/2000/svg" id="connector0leg" stroke-width="2.15136" fill="none" y1="40.565" y2="74.754" stroke="#8C8C8C" x1="6.287" x2="6.287" stroke-linecap="round"/>
 <g xmlns="http://www.w3.org/2000/svg" id="connector1leg" stroke-width="2.15136" fill="none" y1="40.565" y2="74.754" stroke="#8C8C8C" x1="16.29" x2="16.29" stroke-linecap="round"/>
 <rect xmlns="http://www.w3.org/2000/svg" fill="#8C8C8C" height="9.82728" x="3.45096" y="19.3795" width="2.15136"/>
 <path xmlns="http://www.w3.org/2000/svg" fill="#8C8C8C" d="M12.8045,29.2068c0,-1.1736,-1.06488,-2.1024,-2.088,-2.9916c-0.41616,-0.3672,-1.19952,-1.00152,-1.19952,-1.42488l0,-5.47056l-2.16144,0l0,5.78016c0,1.0584,0.94752,1.87848,1.94616,2.74824c0.44424,0.37584,1.34856,1.24992,1.34856,1.76976"/>
 <g xmlns="http://www.w3.org/2000/svg" id="g12">
  <path xmlns="http://www.w3.org/2000/svg" id="color_path14" fill="#17ff8b" d="M14.1732,13.001L14.1732,7.0884C14.1732,3.1752,11.0052,0,7.08768,0C3.1752,0,0,3.16944,0,7.0884l0,13.649c1.47384,1.65096,4.0968,2.75256,7.08768,2.75256c4.61952,0,8.36856,-2.61792,8.36856,-5.85936l0,-1.52352C15.4555,14.9645,14.9818,13.9032,14.1732,13.001z" opacity="0.3"/>
  <path xmlns="http://www.w3.org/2000/svg" id="path16" fill="#E6E6E6" d="M14.1732,13.001L14.1732,7.0884C14.1732,3.1752,11.0052,0,7.08768,0C3.1752,0,0,3.16944,0,7.0884l0,13.649c1.47384,1.65096,4.0968,2.75256,7.08768,2.75256c4.61952,0,8.36856,-2.61792,8.36856,-5.85936l0,-1.52352C15.4555,14.9645,14.9818,13.9032,14.1732,13.001z" opacity="0.5"/>
  <path xmlns="http://www.w3.org/2000/svg" id="path18" fill="#D1D1D1" d="M14.1732,13.001l0,3.10536c0,2.73888,-3.16584,4.96512,-7.08552,4.96512C3.1752,21.0715,0,18.8525,0,16.1064l0,3.10536L0,20.736c1.47384,1.65168,4.0968,2.75256,7.08768,2.75256c4.61952,0,8.36856,-2.61792,8.36856,-5.85864L15.4562,16.1064C15.4555,14.9645,14.9818,13.9032,14.1732,13.001z" opacity="0.9"/>
  <path xmlns="http://www.w3.org/2000/svg" id="color_path20" fill="#17ff8b" d="M14.1732,13.001l0,3.10536c0,2.73888,-3.16584,4.96512,-7.08552,4.96512C3.1752,21.0715,0,18.8525,0,16.1064l0,3.10536L0,20.736c1.47384,1.65168,4.0968,2.75256,7.08768,2.75256c4.61952,0,8.36856,-2.61792,8.36856,-5.85864L15.4562,16.1064C15.4555,14.9645,14.9818,13.9032,14.1732,13.001z" opacity="0.7"/>
  <path xmlns="http://www.w3.org/2000/svg" id="color_path22" fill="#17ff8b" d="M14.1732,13.001l0,3.10536c0,2.73888,-3.16584,4.96512,-7.08552,4.96512C3.1752,21.0715,0,18.8525,0,16.1064l0,3.10536c1.47384,1.65024,4.0968,2.75256,7.08768,2.75256c4.61952,0,8.36856,-2.61792,8.36856,-5.85864C15.4555,14.9645,14.9818,13.9032,14.1732,13.001z" opacity="0.25"/>
  <ellipse xmlns="http://www.w3.org/2000/svg" id="ellipse24" fill="#E6E6E6" cx="7.08768" cy="16.1064" rx="7.08696" ry="4.9608" opacity="0.25"/>
  <ellipse xmlns="http://www.w3.org/2000/svg" id="color_ellipse26" fill="#17ff8b" cx="7.08768" cy="16.1064" rx="7.08696" ry="4.9608" opacity="0.25"/>
  <polygon xmlns="http://www.w3.org/2000/svg" id="polygon28" fill="#666666" points="2.2032,9.648,2.2032,16.1071,3.19608,16.1071,3.19608,13.0946,6.0156,13.0946,10.0123,8.80488,3.40704,8.80488"/>
  <polygon xmlns="http://www.w3.org/2000/svg" id="polygon30" fill="#666666" points="10.7784,8.52408,11.2147,9.03384,7.41168,13.0946,11.0599,13.0946,11.0599,16.1071,11.9736,16.1071,11.9736,8.52408"/>
  <path xmlns="http://www.w3.org/2000/svg" id="color_path32" fill="#17ff8b" d="M14.1732,13.001L14.1732,7.0884C14.1732,3.1752,11.0052,0,7.08768,0C3.1752,0,0,3.16944,0,7.0884l0,13.649c1.47384,1.65096,4.0968,2.75256,7.08768,2.75256c4.61952,0,8.36856,-2.61792,8.36856,-5.85936l0,-1.52352C15.4555,14.9645,14.9818,13.9032,14.1732,13.001z" opacity="0.65"/>
  <path xmlns="http://www.w3.org/2000/svg" id="path34" fill="#FFFFFF" d="M10.3882,3.75408l1.4364,-0.2736c-0.84168,-1.13184,-2.08224,-1.95768,-3.54168,-2.23848l0.25416,1.08072C9.30096,2.59344,9.94392,3.1032,10.3882,3.75408z" opacity="0.5"/>
  <path xmlns="http://www.w3.org/2000/svg" id="path36" fill="#FFFFFF" d="M0.76824,19.926l0,1.51992c0.64872,0.5292,1.43352,0.97632,2.3076,1.31688l0,-1.52496C2.19744,20.9016,1.41912,20.4559,0.76824,19.926z" opacity="0.5"/>
  <path xmlns="http://www.w3.org/2000/svg" id="path38" fill="#FFFFFF" d="M11.0729,20.2097c-0.2556,0.1224,-0.52992,0.22968,-0.80568,0.32976c-0.05832,0.01944,-0.11736,0.04032,-0.17784,0.05832c-0.56376,0.17928,-1.16136,0.31896,-1.79496,0.39456c-0.07488,0.00936,-0.1512,0.01872,-0.22464,0.01944c-0.3204,0.03024,-0.64368,0.05832,-0.97056,0.05832c-0.14832,0,-0.30744,-0.01512,-0.4716,-0.02376c-1.20024,-0.05688,-2.33064,-0.31464,-3.2976,-0.73944L3.33,11.9174L3.33,7.092c0,-1.47096,0.84816,-2.72952,2.0736,-3.34944L5.38128,3.68928l-1.24776,-1.512c-1.66968,1.00296,-2.79,2.8224,-2.79,4.91184l0,11.9052c-0.04968,-0.04968,-0.30816,-0.30888,-0.48024,-0.52992l-0.30744,0.6876c1.40112,1.48176,3.8088,2.46168,6.54264,2.46168c1.67976,0,3.23712,-0.37368,4.51152,-1.00224l-0.52704,-0.40896C11.0729,20.2097,11.0729,20.2097,11.0729,20.2097z" opacity="0.5"/>
 </g>
</g>
</g></g><path stroke='#8c8c8c' stroke-width='2.15136' stroke-linecap='round' stroke-linejoin='round' fill='none' d='M56.8707,29.7402L56.8707,54.3562' />
<path stroke='#8c8c8c' stroke-width='2.15136' stroke-linecap='round' stroke-linejoin='round' fill='none' d='M64.0728,29.7402L64.0728,54.3562' />
<g partID='854180700'><g transform='translate(52.344,0.53336)' ><g xmlns="http://www.w3.org/2000/svg" id="breadboard">
 <rect xmlns="http://www.w3.org/2000/svg" id="connector0pin" fill="none" height="0.72" x="3.45096" y="25.421" width="2.15208"/>
 <rect xmlns="http://www.w3.org/2000/svg" id="connector1pin" fill="none" height="0.72" x="10.651" y="25.421" width="2.15424"/>
 <g xmlns="http://www.w3.org/2000/svg" id="connector0leg" stroke-width="2.15136" fill="none" y1="40.565" y2="74.754" stroke="#8C8C8C" x1="6.287" x2="6.287" stroke-linecap="round"/>
 <g xmlns="http://www.w3.org/2000/svg" id="connector1leg" stroke-width="2.15136" fill="none" y1="40.565" y2="74.754" stroke="#8C8C8C" x1="16.29" x2="16.29" stroke-linecap="round"/>
 <rect xmlns="http://www.w3.org/2000/svg" fill="#8C8C8C" height="9.82728" x="3.45096" y="19.3795" width="2.15136"/>
 <path xmlns="http://www.w3.org/2000/svg" fill="#8C8C8C" d="M12.8045,29.2068c0,-1.1736,-1.06488,-2.1024,-2.088,-2.9916c-0.41616,-0.3672,-1.19952,-1.00152,-1.19952,-1.42488l0,-5.47056l-2.16144,0l0,5.78016c0,1.0584,0.94752,1.87848,1.94616,2.74824c0.44424,0.37584,1.34856,1.24992,1.34856,1.76976"/>
 <g xmlns="http://www.w3.org/2000/svg" id="g12">
  <path xmlns="http://www.w3.org/2000/svg" id="color_path14" fill="#e60000" d="M14.1732,13.001L14.1732,7.0884C14.1732,3.1752,11.0052,0,7.08768,0C3.1752,0,0,3.16944,0,7.0884l0,13.649c1.47384,1.65096,4.0968,2.75256,7.08768,2.75256c4.61952,0,8.36856,-2.61792,8.36856,-5.85936l0,-1.52352C15.4555,14.9645,14.9818,13.9032,14.1732,13.001z" opacity="0.3"/>
  <path xmlns="http://www.w3.org/2000/svg" id="path16" fill="#E6E6E6" d="M14.1732,13.001L14.1732,7.0884C14.1732,3.1752,11.0052,0,7.08768,0C3.1752,0,0,3.16944,0,7.0884l0,13.649c1.47384,1.65096,4.0968,2.75256,7.08768,2.75256c4.61952,0,8.36856,-2.61792,8.36856,-5.85936l0,-1.52352C15.4555,14.9645,14.9818,13.9032,14.1732,13.001z" opacity="0.5"/>
  <path xmlns="http://www.w3.org/2000/svg" id="path18" fill="#D1D1D1" d="M14.1732,13.001l0,3.10536c0,2.73888,-3.16584,4.96512,-7.08552,4.96512C3.1752,21.0715,0,18.8525,0,16.1064l0,3.10536L0,20.736c1.47384,1.65168,4.0968,2.75256,7.08768,2.75256c4.61952,0,8.36856,-2.61792,8.36856,-5.85864L15.4562,16.1064C15.4555,14.9645,14.9818,13.9032,14.1732,13.001z" opacity="0.9"/>
  <path xmlns="http://www.w3.org/2000/svg" id="color_path20" fill="#e60000" d="M14.1732,13.001l0,3.10536c0,2.73888,-3.16584,4.96512,-7.08552,4.96512C3.1752,21.0715,0,18.8525,0,16.1064l0,3.10536L0,20.736c1.47384,1.65168,4.0968,2.75256,7.08768,2.75256c4.61952,0,8.36856,-2.61792,8.36856,-5.85864L15.4562,16.1064C15.4555,14.9645,14.9818,13.9032,14.1732,13.001z" opacity="0.7"/>
  <path xmlns="http://www.w3.org/2000/svg" id="color_path22" fill="#e60000" d="M14.1732,13.001l0,3.10536c0,2.73888,-3.16584,4.96512,-7.08552,4.96512C3.1752,21.0715,0,18.8525,0,16.1064l0,3.10536c1.47384,1.65024,4.0968,2.75256,7.08768,2.75256c4.61952,0,8.36856,-2.61792,8.36856,-5.85864C15.4555,14.9645,14.9818,13.9032,14.1732,13.001z" opacity="0.25"/>
  <ellipse xmlns="http://www.w3.org/2000/svg" id="ellipse24" fill="#E6E6E6" cx="7.08768" cy="16.1064" rx="7.08696" ry="4.9608" opacity="0.25"/>
  <ellipse xmlns="http://www.w3.org/2000/svg" id="color_ellipse26" fill="#e60000" cx="7.08768" cy="16.1064" rx="7.08696" ry="4.9608" opacity="0.25"/>
  <polygon xmlns="http://www.w3.org/2000/svg" id="polygon28" fill="#666666" points="2.2032,9.648,2.2032,16.1071,3.19608,16.1071,3.19608,13.0946,6.0156,13.0946,10.0123,8.80488,3.40704,8.80488"/>
  <polygon xmlns="http://www.w3.org/2000/svg" id="polygon30" fill="#666666" points="10.7784,8.52408,11.2147,9.03384,7.41168,13.0946,11.0599,13.0946,11.0599,16.1071,11.9736,16.1071,11.9736,8.52408"/>
  <path xmlns="http://www.w3.org/2000/svg" id="color_path32" fill="#e60000" d="M14.1732,13.001L14.1732,7.0884C14.1732,3.1752,11.0052,0,7.08768,0C3.1752,0,0,3.16944,0,7.0884l0,13.649c1.47384,1.65096,4.0968,2.75256,7.08768,2.75256c4.61952,0,8.36856,-2.61792,8.36856,-5.85936l0,-1.52352C15.4555,14.9645,14.9818,13.9032,14.1732,13.001z" opacity="0.65"/>
  <path xmlns="http://www.w3.org/2000/svg" id="path34" fill="#FFFFFF" d="M10.3882,3.75408l1.4364,-0.2736c-0.84168,-1.13184,-2.08224,-1.95768,-3.54168,-2.23848l0.25416,1.08072C9.30096,2.59344,9.94392,3.1032,10.3882,3.75408z" opacity="0.5"/>
  <path xmlns="http://www.w3.org/2000/svg" id="path36" fill="#FFFFFF" d="M0.76824,19.926l0,1.51992c0.64872,0.5292,1.43352,0.97632,2.3076,1.31688l0,-1.52496C2.19744,20.9016,1.41912,20.4559,0.76824,19.926z" opacity="0.5"/>
  <path xmlns="http://www.w3.org/2000/svg" id="path38" fill="#FFFFFF" d="M11.0729,20.2097c-0.2556,0.1224,-0.52992,0.22968,-0.80568,0.32976c-0.05832,0.01944,-0.11736,0.04032,-0.17784,0.05832c-0.56376,0.17928,-1.16136,0.31896,-1.79496,0.39456c-0.07488,0.00936,-0.1512,0.01872,-0.22464,0.01944c-0.3204,0.03024,-0.64368,0.05832,-0.97056,0.05832c-0.14832,0,-0.30744,-0.01512,-0.4716,-0.02376c-1.20024,-0.05688,-2.33064,-0.31464,-3.2976,-0.73944L3.33,11.9174L3.33,7.092c0,-1.47096,0.84816,-2.72952,2.0736,-3.34944L5.38128,3.68928l-1.24776,-1.512c-1.66968,1.00296,-2.79,2.8224,-2.79,4.91184l0,11.9052c-0.04968,-0.04968,-0.30816,-0.30888,-0.48024,-0.52992l-0.30744,0.6876c1.40112,1.48176,3.8088,2.46168,6.54264,2.46168c1.67976,0,3.23712,-0.37368,4.51152,-1.00224l-0.52704,-0.40896C11.0729,20.2097,11.0729,20.2097,11.0729,20.2097z" opacity="0.5"/>
 </g>
</g>
</g></g><path stroke='#8c8c8c' stroke-width='2.15136' stroke-linecap='round' stroke-linejoin='round' fill='none' d='M75.5627,29.7402L75.5627,54.3562' />
<path stroke='#8c8c8c' stroke-width='2.15136' stroke-linecap='round' stroke-linejoin='round' fill='none' d='M82.7648,29.7402L82.7648,54.3562' />
<g partID='854180730'><g transform='translate(71.036,0.53336)' ><g xmlns="http://www.w3.org/2000/svg" id="breadboard">
 <rect xmlns="http://www.w3.org/2000/svg" id="connector0pin" fill="none" height="0.72" x="3.45096" y="25.421" width="2.15208"/>
 <rect xmlns="http://www.w3.org/2000/svg" id="connector1pin" fill="none" height="0.72" x="10.651" y="25.421" width="2.15424"/>
 <g xmlns="http://www.w3.org/2000/svg" id="connector0leg" stroke-width="2.15136" fill="none" y1="40.565" y2="74.754" stroke="#8C8C8C" x1="6.287" x2="6.287" stroke-linecap="round"/>
 <g xmlns="http://www.w3.org/2000/svg" id="connector1leg" stroke-width="2.15136" fill="none" y1="40.565" y2="74.754" stroke="#8C8C8C" x1="16.29" x2="16.29" stroke-linecap="round"/>
 <rect xmlns="http://www.w3.org/2000/svg" fill="#8C8C8C" height="9.82728" x="3.45096" y="19.3795" width="2.15136"/>
 <path xmlns="http://www.w3.org/2000/svg" fill="#8C8C8C" d="M12.8045,29.2068c0,-1.1736,-1.06488,-2.1024,-2.088,-2.9916c-0.41616,-0.3672,-1.19952,-1.00152,-1.19952,-1.42488l0,-5.47056l-2.16144,0l0,5.78016c0,1.0584,0.94752,1.87848,1.94616,2.74824c0.44424,0.37584,1.34856,1.24992,1.34856,1.76976"/>
 <g xmlns="http://www.w3.org/2000/svg" id="g12">
  <path xmlns="http://www.w3.org/2000/svg" id="color_path14" fill="#17ff8b" d="M14.1732,13.001L14.1732,7.0884C14.1732,3.1752,11.0052,0,7.08768,0C3.1752,0,0,3.16944,0,7.0884l0,13.649c1.47384,1.65096,4.0968,2.75256,7.08768,2.75256c4.61952,0,8.36856,-2.61792,8.36856,-5.85936l0,-1.52352C15.4555,14.9645,14.9818,13.9032,14.1732,13.001z" opacity="0.3"/>
  <path xmlns="http://www.w3.org/2000/svg" id="path16" fill="#E6E6E6" d="M14.1732,13.001L14.1732,7.0884C14.1732,3.1752,11.0052,0,7.08768,0C3.1752,0,0,3.16944,0,7.0884l0,13.649c1.47384,1.65096,4.0968,2.75256,7.08768,2.75256c4.61952,0,8.36856,-2.61792,8.36856,-5.85936l0,-1.52352C15.4555,14.9645,14.9818,13.9032,14.1732,13.001z" opacity="0.5"/>
  <path xmlns="http://www.w3.org/2000/svg" id="path18" fill="#D1D1D1" d="M14.1732,13.001l0,3.10536c0,2.73888,-3.16584,4.96512,-7.08552,4.96512C3.1752,21.0715,0,18.8525,0,16.1064l0,3.10536L0,20.736c1.47384,1.65168,4.0968,2.75256,7.08768,2.75256c4.61952,0,8.36856,-2.61792,8.36856,-5.85864L15.4562,16.1064C15.4555,14.9645,14.9818,13.9032,14.1732,13.001z" opacity="0.9"/>
  <path xmlns="http://www.w3.org/2000/svg" id="color_path20" fill="#17ff8b" d="M14.1732,13.001l0,3.10536c0,2.73888,-3.16584,4.96512,-7.08552,4.96512C3.1752,21.0715,0,18.8525,0,16.1064l0,3.10536L0,20.736c1.47384,1.65168,4.0968,2.75256,7.08768,2.75256c4.61952,0,8.36856,-2.61792,8.36856,-5.85864L15.4562,16.1064C15.4555,14.9645,14.9818,13.9032,14.1732,13.001z" opacity="0.7"/>
  <path xmlns="http://www.w3.org/2000/svg" id="color_path22" fill="#17ff8b" d="M14.1732,13.001l0,3.10536c0,2.73888,-3.16584,4.96512,-7.08552,4.96512C3.1752,21.0715,0,18.8525,0,16.1064l0,3.10536c1.47384,1.65024,4.0968,2.75256,7.08768,2.75256c4.61952,0,8.36856,-2.61792,8.36856,-5.85864C15.4555,14.9645,14.9818,13.9032,14.1732,13.001z" opacity="0.25"/>
  <ellipse xmlns="http://www.w3.org/2000/svg" id="ellipse24" fill="#E6E6E6" cx="7.08768" cy="16.1064" rx="7.08696" ry="4.9608" opacity="0.25"/>
  <ellipse xmlns="http://www.w3.org/2000/svg" id="color_ellipse26" fill="#17ff8b" cx="7.08768" cy="16.1064" rx="7.08696" ry="4.9608" opacity="0.25"/>
  <polygon xmlns="http://www.w3.org/2000/svg" id="polygon28" fill="#666666" points="2.2032,9.648,2.2032,16.1071,3.19608,16.1071,3.19608,13.0946,6.0156,13.0946,10.0123,8.80488,3.40704,8.80488"/>
  <polygon xmlns="http://www.w3.org/2000/svg" id="polygon30" fill="#666666" points="10.7784,8.52408,11.2147,9.03384,7.41168,13.0946,11.0599,13.0946,11.0599,16.1071,11.9736,16.1071,11.9736,8.52408"/>
  <path xmlns="http://www.w3.org/2000/svg" id="color_path32" fill="#17ff8b" d="M14.1732,13.001L14.1732,7.0884C14.1732,3.1752,11.0052,0,7.08768,0C3.1752,0,0,3.16944,0,7.0884l0,13.649c1.47384,1.65096,4.0968,2.75256,7.08768,2.75256c4.61952,0,8.36856,-2.61792,8.36856,-5.85936l0,-1.52352C15.4555,14.9645,14.9818,13.9032,14.1732,13.001z" opacity="0.65"/>
  <path xmlns="http://www.w3.org/2000/svg" id="path34" fill="#FFFFFF" d="M10.3882,3.75408l1.4364,-0.2736c-0.84168,-1.13184,-2.08224,-1.95768,-3.54168,-2.23848l0.25416,1.08072C9.30096,2.59344,9.94392,3.1032,10.3882,3.75408z" opacity="0.5"/>
  <path xmlns="http://www.w3.org/2000/svg" id="path36" fill="#FFFFFF" d="M0.76824,19.926l0,1.51992c0.64872,0.5292,1.43352,0.97632,2.3076,1.31688l0,-1.52496C2.19744,20.9016,1.41912,20.4559,0.76824,19.926z" opacity="0.5"/>
  <path xmlns="http://www.w3.org/2000/svg" id="path38" fill="#FFFFFF" d="M11.0729,20.2097c-0.2556,0.1224,-0.52992,0.22968,-0.80568,0.32976c-0.05832,0.01944,-0.11736,0.04032,-0.17784,0.05832c-0.56376,0.17928,-1.16136,0.31896,-1.79496,0.39456c-0.07488,0.00936,-0.1512,0.01872,-0.22464,0.01944c-0.3204,0.03024,-0.64368,0.05832,-0.97056,0.05832c-0.14832,0,-0.30744,-0.01512,-0.4716,-0.02376c-1.20024,-0.05688,-2.33064,-0.31464,-3.2976,-0.73944L3.33,11.9174L3.33,7.092c0,-1.47096,0.84816,-2.72952,2.0736,-3.34944L5.38128,3.68928l-1.24776,-1.512c-1.66968,1.00296,-2.79,2.8224,-2.79,4.91184l0,11.9052c-0.04968,-0.04968,-0.30816,-0.30888,-0.48024,-0.52992l-0.30744,0.6876c1.40112,1.48176,3.8088,2.46168,6.54264,2.46168c1.67976,0,3.23712,-0.37368,4.51152,-1.00224l-0.52704,-0.40896C11.0729,20.2097,11.0729,20.2097,11.0729,20.2097z" opacity="0.5"/>
 </g>
</g>
</g></g><path stroke='#8c8c8c' stroke-width='2.15136' stroke-linecap='round' stroke-linejoin='round' fill='none' d='M13.8907,237.117L13.8907,212.501' />
<path stroke='#8c8c8c' stroke-width='2.15136' stroke-linecap='round' stroke-linejoin='round' fill='none' d='M21.0928,237.117L21.0928,212.501' />
<g partID='854180760'><g transform='translate(9.36402,266.324)' ><g transform='matrix(1,0,0,-1,0,0)'  ><g xmlns="http://www.w3.org/2000/svg" id="breadboard">
 <rect xmlns="http://www.w3.org/2000/svg" id="connector0pin" fill="none" height="0.72" x="3.45096" y="25.421" width="2.15208"/>
 <rect xmlns="http://www.w3.org/2000/svg" id="connector1pin" fill="none" height="0.72" x="10.651" y="25.421" width="2.15424"/>
 <g xmlns="http://www.w3.org/2000/svg" id="connector0leg" stroke-width="2.15136" fill="none" y1="40.565" y2="74.754" stroke="#8C8C8C" x1="6.287" x2="6.287" stroke-linecap="round"/>
 <g xmlns="http://www.w3.org/2000/svg" id="connector1leg" stroke-width="2.15136" fill="none" y1="40.565" y2="74.754" stroke="#8C8C8C" x1="16.29" x2="16.29" stroke-linecap="round"/>
 <rect xmlns="http://www.w3.org/2000/svg" fill="#8C8C8C" height="9.82728" x="3.45096" y="19.3795" width="2.15136"/>
 <path xmlns="http://www.w3.org/2000/svg" fill="#8C8C8C" d="M12.8045,29.2068c0,-1.1736,-1.06488,-2.1024,-2.088,-2.9916c-0.41616,-0.3672,-1.19952,-1.00152,-1.19952,-1.42488l0,-5.47056l-2.16144,0l0,5.78016c0,1.0584,0.94752,1.87848,1.94616,2.74824c0.44424,0.37584,1.34856,1.24992,1.34856,1.76976"/>
 <g xmlns="http://www.w3.org/2000/svg" id="g12">
  <path xmlns="http://www.w3.org/2000/svg" id="color_path14" fill="#00d9d3" d="M14.1732,13.001L14.1732,7.0884C14.1732,3.1752,11.0052,0,7.08768,0C3.1752,0,0,3.16944,0,7.0884l0,13.649c1.47384,1.65096,4.0968,2.75256,7.08768,2.75256c4.61952,0,8.36856,-2.61792,8.36856,-5.85936l0,-1.52352C15.4555,14.9645,14.9818,13.9032,14.1732,13.001z" opacity="0.3"/>
  <path xmlns="http://www.w3.org/2000/svg" id="path16" fill="#E6E6E6" d="M14.1732,13.001L14.1732,7.0884C14.1732,3.1752,11.0052,0,7.08768,0C3.1752,0,0,3.16944,0,7.0884l0,13.649c1.47384,1.65096,4.0968,2.75256,7.08768,2.75256c4.61952,0,8.36856,-2.61792,8.36856,-5.85936l0,-1.52352C15.4555,14.9645,14.9818,13.9032,14.1732,13.001z" opacity="0.5"/>
  <path xmlns="http://www.w3.org/2000/svg" id="path18" fill="#D1D1D1" d="M14.1732,13.001l0,3.10536c0,2.73888,-3.16584,4.96512,-7.08552,4.96512C3.1752,21.0715,0,18.8525,0,16.1064l0,3.10536L0,20.736c1.47384,1.65168,4.0968,2.75256,7.08768,2.75256c4.61952,0,8.36856,-2.61792,8.36856,-5.85864L15.4562,16.1064C15.4555,14.9645,14.9818,13.9032,14.1732,13.001z" opacity="0.9"/>
  <path xmlns="http://www.w3.org/2000/svg" id="color_path20" fill="#00d9d3" d="M14.1732,13.001l0,3.10536c0,2.73888,-3.16584,4.96512,-7.08552,4.96512C3.1752,21.0715,0,18.8525,0,16.1064l0,3.10536L0,20.736c1.47384,1.65168,4.0968,2.75256,7.08768,2.75256c4.61952,0,8.36856,-2.61792,8.36856,-5.85864L15.4562,16.1064C15.4555,14.9645,14.9818,13.9032,14.1732,13.001z" opacity="0.7"/>
  <path xmlns="http://www.w3.org/2000/svg" id="color_path22" fill="#00d9d3" d="M14.1732,13.001l0,3.10536c0,2.73888,-3.16584,4.96512,-7.08552,4.96512C3.1752,21.0715,0,18.8525,0,16.1064l0,3.10536c1.47384,1.65024,4.0968,2.75256,7.08768,2.75256c4.61952,0,8.36856,-2.61792,8.36856,-5.85864C15.4555,14.9645,14.9818,13.9032,14.1732,13.001z" opacity="0.25"/>
  <ellipse xmlns="http://www.w3.org/2000/svg" id="ellipse24" fill="#E6E6E6" cx="7.08768" cy="16.1064" rx="7.08696" ry="4.9608" opacity="0.25"/>
  <ellipse xmlns="http://www.w3.org/2000/svg" id="color_ellipse26" fill="#00d9d3" cx="7.08768" cy="16.1064" rx="7.08696" ry="4.9608" opacity="0.25"/>
  <polygon xmlns="http://www.w3.org/2000/svg" id="polygon28" fill="#666666" points="2.2032,9.648,2.2032,16.1071,3.19608,16.1071,3.19608,13.0946,6.0156,13.0946,10.0123,8.80488,3.40704,8.80488"/>
  <polygon xmlns="http://www.w3.org/2000/svg" id="polygon30" fill="#666666" points="10.7784,8.52408,11.2147,9.03384,7.41168,13.0946,11.0599,13.0946,11.0599,16.1071,11.9736,16.1071,11.9736,8.52408"/>
  <path xmlns="http://www.w3.org/2000/svg" id="color_path32" fill="#00d9d3" d="M14.1732,13.001L14.1732,7.0884C14.1732,3.1752,11.0052,0,7.08768,0C3.1752,0,0,3.16944,0,7.0884l0,13.649c1.47384,1.65096,4.0968,2.75256,7.08768,2.75256c4.61952,0,8.36856,-2.61792,8.36856,-5.85936l0,-1.52352C15.4555,14.9645,14.9818,13.9032,14.1732,13.001z" opacity="0.65"/>
  <path xmlns="http://www.w3.org/2000/svg" id="path34" fill="#FFFFFF" d="M10.3882,3.75408l1.4364,-0.2736c-0.84168,-1.13184,-2.08224,-1.95768,-3.54168,-2.23848l0.25416,1.08072C9.30096,2.59344,9.94392,3.1032,10.3882,3.75408z" opacity="0.5"/>
  <path xmlns="http://www.w3.org/2000/svg" id="path36" fill="#FFFFFF" d="M0.76824,19.926l0,1.51992c0.64872,0.5292,1.43352,0.97632,2.3076,1.31688l0,-1.52496C2.19744,20.9016,1.41912,20.4559,0.76824,19.926z" opacity="0.5"/>
  <path xmlns="http://www.w3.org/2000/svg" id="path38" fill="#FFFFFF" d="M11.0729,20.2097c-0.2556,0.1224,-0.52992,0.22968,-0.80568,0.32976c-0.05832,0.01944,-0.11736,0.04032,-0.17784,0.05832c-0.56376,0.17928,-1.16136,0.31896,-1.79496,0.39456c-0.07488,0.00936,-0.1512,0.01872,-0.22464,0.01944c-0.3204,0.03024,-0.64368,0.05832,-0.97056,0.05832c-0.14832,0,-0.30744,-0.01512,-0.4716,-0.02376c-1.20024,-0.05688,-2.33064,-0.31464,-3.2976,-0.73944L3.33,11.9174L3.33,7.092c0,-1.47096,0.84816,-2.72952,2.0736,-3.34944L5.38128,3.68928l-1.24776,-1.512c-1.66968,1.00296,-2.79,2.8224,-2.79,4.91184l0,11.9052c-0.04968,-0.04968,-0.30816,-0.30888,-0.48024,-0.52992l-0.30744,0.6876c1.40112,1.48176,3.8088,2.46168,6.54264,2.46168c1.67976,0,3.23712,-0.37368,4.51152,-1.00224l-0.52704,-0.40896C11.0729,20.2097,11.0729,20.2097,11.0729,20.2097z" opacity="0.5"/>
 </g>
</g>
</g></g></g><path stroke='#8c8c8c' stroke-width='2.0952' stroke-linecap='round' stroke-linejoin='round' fill='none' d='M29.103,87.761L29.103,88.8086' />
<path stroke='#8c8c8c' stroke-width='2.0952' stroke-linecap='round' stroke-linejoin='round' fill='none' d='M29.103,61.0512L29.103,60.0036' />
<g partID='854180790'><g transform='translate(25.4706,89.8562)' ><g transform='matrix(0,-1,1,0,0,0)'  ><g xmlns="http://www.w3.org/2000/svg" id="breadboard">
 <rect xmlns="http://www.w3.org/2000/svg" id="connector0pin" fill="none" height="0.72" x="0.36" y="2.5848" width="0.72"/>
 <rect xmlns="http://www.w3.org/2000/svg" id="connector1pin" fill="none" height="0.72" x="29.8202" y="2.5848" width="0.72"/>
 <line xmlns="http://www.w3.org/2000/svg" id="connector0leg" stroke-width="2.0952" fill="none" y1="3.6324" y2="3.6324" stroke="#8C8C8C" x1="1.0476" x2="2.0952" stroke-linecap="round"/>
 <line xmlns="http://www.w3.org/2000/svg" id="connector1leg" stroke-width="2.0952" fill="none" y1="3.6324" y2="3.6324" stroke="#8C8C8C" x1="29.8526" x2="28.805" stroke-linecap="round"/>
 <path xmlns="http://www.w3.org/2000/svg" stroke-width="2.0952" fill="none" stroke="#8C8C8C" d="M1.0476,3.6324l28.3666,0"/>
 <path xmlns="http://www.w3.org/2000/svg" id="body" fill="#D9B477" d="M10.2478,0.49536c-0.36,-0.1656,-0.9792,-0.2952,-1.3752,-0.2952l-1.9872,0c-0.396,0,-0.72,0.324,-0.72,0.72l0,5.35608c0,0.39672,0.324,0.72,0.72,0.72l1.9872,0c0.396,0,1.0152,-0.13608,1.3752,-0.2952l0.072,-0.03528c0.36,-0.1656,0.9792,-0.2952,1.3752,-0.2952l7.1856,0c0.39672,0,1.01448,0.13608,1.37448,0.2952l0.07272,0.03528c0.36,0.1656,0.97776,0.2952,1.3752,0.2952l1.9872,0c0.39744,0,0.72,-0.32328,0.72,-0.72L24.4102,0.92016c0,-0.396,-0.32256,-0.72,-0.72,-0.72l-1.9872,0c-0.39744,0,-1.0152,0.1368,-1.3752,0.2952l-0.07272,0.036c-0.36,0.1656,-0.97776,0.2952,-1.37448,0.2952l-7.1856,0c-0.396,0,-1.0152,-0.1368,-1.3752,-0.2952L10.2478,0.49536z"/>
 <rect xmlns="http://www.w3.org/2000/svg" id="gold_band" fill="#ad9f4e" height="6.79536" x="22.019" y="0.19368" width="0.70272"/>
 <rect xmlns="http://www.w3.org/2000/svg" id="band_rd_multiplier" fill="#8a3d06" height="5.5368" x="16.1726" y="0.82656" width="1.8504"/>
 <rect xmlns="http://www.w3.org/2000/svg" id="band_2_nd" fill="#c40808" height="5.5368" x="12.4726" y="0.82656" width="1.8504"/>
 <path xmlns="http://www.w3.org/2000/svg" id="band_1_st" fill="#c40808" d="M10.6286,0.63936c-0.1152,-0.036,-0.2232,-0.072,-0.3096,-0.1152l-0.072,-0.036c-0.36,-0.16488,-0.9792,-0.2952,-1.3752,-0.2952l-0.0864,0l0,6.79608l0.0864,0c0.396,0,1.0152,-0.13608,1.3752,-0.2952l0.072,-0.03528c0.0864,-0.04464,0.1944,-0.07992,0.3096,-0.1152L10.6286,0.63936z"/>
 <path xmlns="http://www.w3.org/2000/svg" id="Shadow" d="M23.711,4.0896L23.711,4.0896c0,0.37944,-0.13032,0.69912,-0.2952,0.69912l-1.9224,0c-0.38016,0,-0.97776,-0.05616,-1.33272,-0.1224L20.088,4.65048c-0.34488,-0.0648,-0.94896,-0.1224,-1.33344,-0.1224L11.808,4.52808c-0.3816,0,-0.9792,0.0576,-1.332,0.1224l-0.072,0.01512c-0.3456,0.06552,-0.9432,0.1224,-1.332,0.1224l-0.3168,0l-1.0008,0l-0.3096,0c-0.3816,0,-0.6984,0.29376,-0.6984,0.64512l0,0.24696L6.7464,5.8392l0,0.1728c0,0.36,0.3168,0.64512,0.6984,0.64512l1.62,0c0.3816,0,0.9792,-0.1224,1.332,-0.26712l0.072,-0.02808c0.3456,-0.14112,0.9504,-0.26496,1.332,-0.26496l6.94656,0c0.37944,0,0.97704,0.12384,1.33416,0.26568l0.07416,0.02808c0.34488,0.14472,0.94464,0.26712,1.33344,0.26712l2.2248,0c0.38088,0,0.69912,-0.2952,0.69912,-0.64512L24.413,5.472L24.413,4.49928L24.413,2.65536C24.1358,2.76336,23.711,3.06576,23.711,4.0896z" opacity="0.3"/>
 <rect xmlns="http://www.w3.org/2000/svg" id="ShadowExtra" height="3.15288" x="22.019" y="3.48336" opacity="0.4" width="0.70272"/>
 <path xmlns="http://www.w3.org/2000/svg" id="ReflexRight" fill="#FFFFFF" d="M19.751,1.08576c0.22968,0,0.49104,-0.1008,0.6624,-0.1728c0.2016,-0.0792,0.57672,-0.144,0.96624,-0.144l1.46088,0c0.22464,0,0.22464,0.2448,0.22464,0.3744c0,0.1296,-0.01512,0.3816,-0.22464,0.3816l-3.06,0c-0.10728,0,-0.2304,-0.1152,-0.2304,-0.22392C19.5566,1.21536,19.6286,1.08576,19.751,1.08576z" opacity="0.25"/>
 <circle xmlns="http://www.w3.org/2000/svg" id="ReflexLeft" fill="#FFFFFF" cx="6.99984" cy="1.13616" r="0.432" opacity="0.35"/>
 <rect xmlns="http://www.w3.org/2000/svg" id="Reflex_gold" fill="#FFFF33" height="1.62" x="22.019" y="0.42336" opacity="0.5" width="0.70272"/>
 <rect xmlns="http://www.w3.org/2000/svg" id="Reflex_extra" fill="#FFFFFF" height="0.7488" x="22.019" y="0.78336" opacity="0.5" width="0.70272"/>
</g>
</g></g></g><path stroke='#8c8c8c' stroke-width='2.0952' stroke-linecap='round' stroke-linejoin='round' fill='none' d='M46.4918,87.761L46.4918,88.8086' />
<path stroke='#8c8c8c' stroke-width='2.0952' stroke-linecap='round' stroke-linejoin='round' fill='none' d='M46.4918,61.0512L46.4918,60.0036' />
<g partID='854180820'><g transform='translate(42.8594,89.8562)' ><g transform='matrix(0,-1,1,0,0,0)'  ><g xmlns="http://www.w3.org/2000/svg" id="breadboard">
 <rect xmlns="http://www.w3.org/2000/svg" id="connector0pin" fill="none" height="0.72" x="0.36" y="2.5848" width="0.72"/>
 <rect xmlns="http://www.w3.org/2000/svg" id="connector1pin" fill="none" height="0.72" x="29.8202" y="2.5848" width="0.72"/>
 <line xmlns="http://www.w3.org/2000/svg" id="connector0leg" stroke-width="2.0952" fill="none" y1="3.6324" y2="3.6324" stroke="#8C8C8C" x1="1.0476" x2="2.0952" stroke-linecap="round"/>
 <line xmlns="http://www.w3.org/2000/svg" id="connector1leg" stroke-width="2.0952" fill="none" y1="3.6324" y2="3.6324" stroke="#8C8C8C" x1="29.8526" x2="28.805" stroke-linecap="round"/>
 <path xmlns="http://www.w3.org/2000/svg" stroke-width="2.0952" fill="none" stroke="#8C8C8C" d="M1.0476,3.6324l28.3666,0"/>
 <path xmlns="http://www.w3.org/2000/svg" id="body" fill="#D9B477" d="M10.2478,0.49536c-0.36,-0.1656,-0.9792,-0.2952,-1.3752,-0.2952l-1.9872,0c-0.396,0,-0.72,0.324,-0.72,0.72l0,5.35608c0,0.39672,0.324,0.72,0.72,0.72l1.9872,0c0.396,0,1.0152,-0.13608,1.3752,-0.2952l0.072,-0.03528c0.36,-0.1656,0.9792,-0.2952,1.3752,-0.2952l7.1856,0c0.39672,0,1.01448,0.13608,1.37448,0.2952l0.07272,0.03528c0.36,0.1656,0.97776,0.2952,1.3752,0.2952l1.9872,0c0.39744,0,0.72,-0.32328,0.72,-0.72L24.4102,0.92016c0,-0.396,-0.32256,-0.72,-0.72,-0.72l-1.9872,0c-0.39744,0,-1.0152,0.1368,-1.3752,0.2952l-0.07272,0.036c-0.36,0.1656,-0.97776,0.2952,-1.37448,0.2952l-7.1856,0c-0.396,0,-1.0152,-0.1368,-1.3752,-0.2952L10.2478,0.49536z"/>
 <rect xmlns="http://www.w3.org/2000/svg" id="gold_band" fill="#ad9f4e" height="6.79536" x="22.019" y="0.19368" width="0.70272"/>
 <rect xmlns="http://www.w3.org/2000/svg" id="band_rd_multiplier" fill="#8a3d06" height="5.5368" x="16.1726" y="0.82656" width="1.8504"/>
 <rect xmlns="http://www.w3.org/2000/svg" id="band_2_nd" fill="#c40808" height="5.5368" x="12.4726" y="0.82656" width="1.8504"/>
 <path xmlns="http://www.w3.org/2000/svg" id="band_1_st" fill="#c40808" d="M10.6286,0.63936c-0.1152,-0.036,-0.2232,-0.072,-0.3096,-0.1152l-0.072,-0.036c-0.36,-0.16488,-0.9792,-0.2952,-1.3752,-0.2952l-0.0864,0l0,6.79608l0.0864,0c0.396,0,1.0152,-0.13608,1.3752,-0.2952l0.072,-0.03528c0.0864,-0.04464,0.1944,-0.07992,0.3096,-0.1152L10.6286,0.63936z"/>
 <path xmlns="http://www.w3.org/2000/svg" id="Shadow" d="M23.711,4.0896L23.711,4.0896c0,0.37944,-0.13032,0.69912,-0.2952,0.69912l-1.9224,0c-0.38016,0,-0.97776,-0.05616,-1.33272,-0.1224L20.088,4.65048c-0.34488,-0.0648,-0.94896,-0.1224,-1.33344,-0.1224L11.808,4.52808c-0.3816,0,-0.9792,0.0576,-1.332,0.1224l-0.072,0.01512c-0.3456,0.06552,-0.9432,0.1224,-1.332,0.1224l-0.3168,0l-1.0008,0l-0.3096,0c-0.3816,0,-0.6984,0.29376,-0.6984,0.64512l0,0.24696L6.7464,5.8392l0,0.1728c0,0.36,0.3168,0.64512,0.6984,0.64512l1.62,0c0.3816,0,0.9792,-0.1224,1.332,-0.26712l0.072,-0.02808c0.3456,-0.14112,0.9504,-0.26496,1.332,-0.26496l6.94656,0c0.37944,0,0.97704,0.12384,1.33416,0.26568l0.07416,0.02808c0.34488,0.14472,0.94464,0.26712,1.33344,0.26712l2.2248,0c0.38088,0,0.69912,-0.2952,0.69912,-0.64512L24.413,5.472L24.413,4.49928L24.413,2.65536C24.1358,2.76336,23.711,3.06576,23.711,4.0896z" opacity="0.3"/>
 <rect xmlns="http://www.w3.org/2000/svg" id="ShadowExtra" height="3.15288" x="22.019" y="3.48336" opacity="0.4" width="0.70272"/>
 <path xmlns="http://www.w3.org/2000/svg" id="ReflexRight" fill="#FFFFFF" d="M19.751,1.08576c0.22968,0,0.49104,-0.1008,0.6624,-0.1728c0.2016,-0.0792,0.57672,-0.144,0.96624,-0.144l1.46088,0c0.22464,0,0.22464,0.2448,0.22464,0.3744c0,0.1296,-0.01512,0.3816,-0.22464,0.3816l-3.06,0c-0.10728,0,-0.2304,-0.1152,-0.2304,-0.22392C19.5566,1.21536,19.6286,1.08576,19.751,1.08576z" opacity="0.25"/>
 <circle xmlns="http://www.w3.org/2000/svg" id="ReflexLeft" fill="#FFFFFF" cx="6.99984" cy="1.13616" r="0.432" opacity="0.35"/>
 <rect xmlns="http://www.w3.org/2000/svg" id="Reflex_gold" fill="#FFFF33" height="1.62" x="22.019" y="0.42336" opacity="0.5" width="0.70272"/>
 <rect xmlns="http://www.w3.org/2000/svg" id="Reflex_extra" fill="#FFFFFF" height="0.7488" x="22.019" y="0.78336" opacity="0.5" width="0.70272"/>
</g>
</g></g></g><path stroke='#8c8c8c' stroke-width='2.0952' stroke-linecap='round' stroke-linejoin='round' fill='none' d='M63.8806,87.761L63.8806,88.8086' />
<path stroke='#8c8c8c' stroke-width='2.0952' stroke-linecap='round' stroke-linejoin='round' fill='none' d='M63.8806,61.0512L63.8806,60.0036' />
<g partID='854180850'><g transform='translate(60.2482,89.8562)' ><g transform='matrix(0,-1,1,0,0,0)'  ><g xmlns="http://www.w3.org/2000/svg" id="breadboard">
 <rect xmlns="http://www.w3.org/2000/svg" id="connector0pin" fill="none" height="0.72" x="0.36" y="2.5848" width="0.72"/>
 <rect xmlns="http://www.w3.org/2000/svg" id="connector1pin" fill="none" height="0.72" x="29.8202" y="2.5848" width="0.72"/>
 <line xmlns="http://www.w3.org/2000/svg" id="connector0leg" stroke-width="2.0952" fill="none" y1="3.6324" y2="3.6324" stroke="#8C8C8C" x1="1.0476" x2="2.0952" stroke-linecap="round"/>
 <line xmlns="http://www.w3.org/2000/svg" id="connector1leg" stroke-width="2.0952" fill="none" y1="3.6324" y2="3.6324" stroke="#8C8C8C" x1="29.8526" x2="28.805" stroke-linecap="round"/>
 <path xmlns="http://www.w3.org/2000/svg" stroke-width="2.0952" fill="none" stroke="#8C8C8C" d="M1.0476,3.6324l28.3666,0"/>
 <path xmlns="http://www.w3.org/2000/svg" id="body" fill="#D9B477" d="M10.2478,0.49536c-0.36,-0.1656,-0.9792,-0.2952,-1.3752,-0.2952l-1.9872,0c-0.396,0,-0.72,0.324,-0.72,0.72l0,5.35608c0,0.39672,0.324,0.72,0.72,0.72l1.9872,0c0.396,0,1.0152,-0.13608,1.3752,-0.2952l0.072,-0.03528c0.36,-0.1656,0.9792,-0.2952,1.3752,-0.2952l7.1856,0c0.39672,0,1.01448,0.13608,1.37448,0.2952l0.07272,0.03528c0.36,0.1656,0.97776,0.2952,1.3752,0.2952l1.9872,0c0.39744,0,0.72,-0.32328,0.72,-0.72L24.4102,0.92016c0,-0.396,-0.32256,-0.72,-0.72,-0.72l-1.9872,0c-0.39744,0,-1.0152,0.1368,-1.3752,0.2952l-0.07272,0.036c-0.36,0.1656,-0.97776,0.2952,-1.37448,0.2952l-7.1856,0c-0.396,0,-1.0152,-0.1368,-1.3752,-0.2952L10.2478,0.49536z"/>
 <rect xmlns="http://www.w3.org/2000/svg" id="gold_band" fill="#ad9f4e" height="6.79536" x="22.019" y="0.19368" width="0.70272"/>
 <rect xmlns="http://www.w3.org/2000/svg" id="band_rd_multiplier" fill="#8a3d06" height="5.5368" x="16.1726" y="0.82656" width="1.8504"/>
 <rect xmlns="http://www.w3.org/2000/svg" id="band_2_nd" fill="#c40808" height="5.5368" x="12.4726" y="0.82656" width="1.8504"/>
 <path xmlns="http://www.w3.org/2000/svg" id="band_1_st" fill="#c40808" d="M10.6286,0.63936c-0.1152,-0.036,-0.2232,-0.072,-0.3096,-0.1152l-0.072,-0.036c-0.36,-0.16488,-0.9792,-0.2952,-1.3752,-0.2952l-0.0864,0l0,6.79608l0.0864,0c0.396,0,1.0152,-0.13608,1.3752,-0.2952l0.072,-0.03528c0.0864,-0.04464,0.1944,-0.07992,0.3096,-0.1152L10.6286,0.63936z"/>
 <path xmlns="http://www.w3.org/2000/svg" id="Shadow" d="M23.711,4.0896L23.711,4.0896c0,0.37944,-0.13032,0.69912,-0.2952,0.69912l-1.9224,0c-0.38016,0,-0.97776,-0.05616,-1.33272,-0.1224L20.088,4.65048c-0.34488,-0.0648,-0.94896,-0.1224,-1.33344,-0.1224L11.808,4.52808c-0.3816,0,-0.9792,0.0576,-1.332,0.1224l-0.072,0.01512c-0.3456,0.06552,-0.9432,0.1224,-1.332,0.1224l-0.3168,0l-1.0008,0l-0.3096,0c-0.3816,0,-0.6984,0.29376,-0.6984,0.64512l0,0.24696L6.7464,5.8392l0,0.1728c0,0.36,0.3168,0.64512,0.6984,0.64512l1.62,0c0.3816,0,0.9792,-0.1224,1.332,-0.26712l0.072,-0.02808c0.3456,-0.14112,0.9504,-0.26496,1.332,-0.26496l6.94656,0c0.37944,0,0.97704,0.12384,1.33416,0.26568l0.07416,0.02808c0.34488,0.14472,0.94464,0.26712,1.33344,0.26712l2.2248,0c0.38088,0,0.69912,-0.2952,0.69912,-0.64512L24.413,5.472L24.413,4.49928L24.413,2.65536C24.1358,2.76336,23.711,3.06576,23.711,4.0896z" opacity="0.3"/>
 <rect xmlns="http://www.w3.org/2000/svg" id="ShadowExtra" height="3.15288" x="22.019" y="3.48336" opacity="0.4" width="0.70272"/>
 <path xmlns="http://www.w3.org/2000/svg" id="ReflexRight" fill="#FFFFFF" d="M19.751,1.08576c0.22968,0,0.49104,-0.1008,0.6624,-0.1728c0.2016,-0.0792,0.57672,-0.144,0.96624,-0.144l1.46088,0c0.22464,0,0.22464,0.2448,0.22464,0.3744c0,0.1296,-0.01512,0.3816,-0.22464,0.3816l-3.06,0c-0.10728,0,-0.2304,-0.1152,-0.2304,-0.22392C19.5566,1.21536,19.6286,1.08576,19.751,1.08576z" opacity="0.25"/>
 <circle xmlns="http://www.w3.org/2000/svg" id="ReflexLeft" fill="#FFFFFF" cx="6.99984" cy="1.13616" r="0.432" opacity="0.35"/>
 <rect xmlns="http://www.w3.org/2000/svg" id="Reflex_gold" fill="#FFFF33" height="1.62" x="22.019" y="0.42336" opacity="0.5" width="0.70272"/>
 <rect xmlns="http://www.w3.org/2000/svg" id="Reflex_extra" fill="#FFFFFF" height="0.7488" x="22.019" y="0.78336" opacity="0.5" width="0.70272"/>
</g>
</g></g></g><path stroke='#8c8c8c' stroke-width='2.0952' stroke-linecap='round' stroke-linejoin='round' fill='none' d='M82.7606,87.761L82.7606,88.8086' />
<path stroke='#8c8c8c' stroke-width='2.0952' stroke-linecap='round' stroke-linejoin='round' fill='none' d='M82.7606,61.0512L82.7606,60.0036' />
<g partID='854180880'><g transform='translate(79.1282,89.8562)' ><g transform='matrix(0,-1,1,0,0,0)'  ><g xmlns="http://www.w3.org/2000/svg" id="breadboard">
 <rect xmlns="http://www.w3.org/2000/svg" id="connector0pin" fill="none" height="0.72" x="0.36" y="2.5848" width="0.72"/>
 <rect xmlns="http://www.w3.org/2000/svg" id="connector1pin" fill="none" height="0.72" x="29.8202" y="2.5848" width="0.72"/>
 <line xmlns="http://www.w3.org/2000/svg" id="connector0leg" stroke-width="2.0952" fill="none" y1="3.6324" y2="3.6324" stroke="#8C8C8C" x1="1.0476" x2="2.0952" stroke-linecap="round"/>
 <line xmlns="http://www.w3.org/2000/svg" id="connector1leg" stroke-width="2.0952" fill="none" y1="3.6324" y2="3.6324" stroke="#8C8C8C" x1="29.8526" x2="28.805" stroke-linecap="round"/>
 <path xmlns="http://www.w3.org/2000/svg" stroke-width="2.0952" fill="none" stroke="#8C8C8C" d="M1.0476,3.6324l28.3666,0"/>
 <path xmlns="http://www.w3.org/2000/svg" id="body" fill="#D9B477" d="M10.2478,0.49536c-0.36,-0.1656,-0.9792,-0.2952,-1.3752,-0.2952l-1.9872,0c-0.396,0,-0.72,0.324,-0.72,0.72l0,5.35608c0,0.39672,0.324,0.72,0.72,0.72l1.9872,0c0.396,0,1.0152,-0.13608,1.3752,-0.2952l0.072,-0.03528c0.36,-0.1656,0.9792,-0.2952,1.3752,-0.2952l7.1856,0c0.39672,0,1.01448,0.13608,1.37448,0.2952l0.07272,0.03528c0.36,0.1656,0.97776,0.2952,1.3752,0.2952l1.9872,0c0.39744,0,0.72,-0.32328,0.72,-0.72L24.4102,0.92016c0,-0.396,-0.32256,-0.72,-0.72,-0.72l-1.9872,0c-0.39744,0,-1.0152,0.1368,-1.3752,0.2952l-0.07272,0.036c-0.36,0.1656,-0.97776,0.2952,-1.37448,0.2952l-7.1856,0c-0.396,0,-1.0152,-0.1368,-1.3752,-0.2952L10.2478,0.49536z"/>
 <rect xmlns="http://www.w3.org/2000/svg" id="gold_band" fill="#ad9f4e" height="6.79536" x="22.019" y="0.19368" width="0.70272"/>
 <rect xmlns="http://www.w3.org/2000/svg" id="band_rd_multiplier" fill="#8a3d06" height="5.5368" x="16.1726" y="0.82656" width="1.8504"/>
 <rect xmlns="http://www.w3.org/2000/svg" id="band_2_nd" fill="#c40808" height="5.5368" x="12.4726" y="0.82656" width="1.8504"/>
 <path xmlns="http://www.w3.org/2000/svg" id="band_1_st" fill="#c40808" d="M10.6286,0.63936c-0.1152,-0.036,-0.2232,-0.072,-0.3096,-0.1152l-0.072,-0.036c-0.36,-0.16488,-0.9792,-0.2952,-1.3752,-0.2952l-0.0864,0l0,6.79608l0.0864,0c0.396,0,1.0152,-0.13608,1.3752,-0.2952l0.072,-0.03528c0.0864,-0.04464,0.1944,-0.07992,0.3096,-0.1152L10.6286,0.63936z"/>
 <path xmlns="http://www.w3.org/2000/svg" id="Shadow" d="M23.711,4.0896L23.711,4.0896c0,0.37944,-0.13032,0.69912,-0.2952,0.69912l-1.9224,0c-0.38016,0,-0.97776,-0.05616,-1.33272,-0.1224L20.088,4.65048c-0.34488,-0.0648,-0.94896,-0.1224,-1.33344,-0.1224L11.808,4.52808c-0.3816,0,-0.9792,0.0576,-1.332,0.1224l-0.072,0.01512c-0.3456,0.06552,-0.9432,0.1224,-1.332,0.1224l-0.3168,0l-1.0008,0l-0.3096,0c-0.3816,0,-0.6984,0.29376,-0.6984,0.64512l0,0.24696L6.7464,5.8392l0,0.1728c0,0.36,0.3168,0.64512,0.6984,0.64512l1.62,0c0.3816,0,0.9792,-0.1224,1.332,-0.26712l0.072,-0.02808c0.3456,-0.14112,0.9504,-0.26496,1.332,-0.26496l6.94656,0c0.37944,0,0.97704,0.12384,1.33416,0.26568l0.07416,0.02808c0.34488,0.14472,0.94464,0.26712,1.33344,0.26712l2.2248,0c0.38088,0,0.69912,-0.2952,0.69912,-0.64512L24.413,5.472L24.413,4.49928L24.413,2.65536C24.1358,2.76336,23.711,3.06576,23.711,4.0896z" opacity="0.3"/>
 <rect xmlns="http://www.w3.org/2000/svg" id="ShadowExtra" height="3.15288" x="22.019" y="3.48336" opacity="0.4" width="0.70272"/>
 <path xmlns="http://www.w3.org/2000/svg" id="ReflexRight" fill="#FFFFFF" d="M19.751,1.08576c0.22968,0,0.49104,-0.1008,0.6624,-0.1728c0.2016,-0.0792,0.57672,-0.144,0.96624,-0.144l1.46088,0c0.22464,0,0.22464,0.2448,0.22464,0.3744c0,0.1296,-0.01512,0.3816,-0.22464,0.3816l-3.06,0c-0.10728,0,-0.2304,-0.1152,-0.2304,-0.22392C19.5566,1.21536,19.6286,1.08576,19.751,1.08576z" opacity="0.25"/>
 <circle xmlns="http://www.w3.org/2000/svg" id="ReflexLeft" fill="#FFFFFF" cx="6.99984" cy="1.13616" r="0.432" opacity="0.35"/>
 <rect xmlns="http://www.w3.org/2000/svg" id="Reflex_gold" fill="#FFFF33" height="1.62" x="22.019" y="0.42336" opacity="0.5" width="0.70272"/>
 <rect xmlns="http://www.w3.org/2000/svg" id="Reflex_extra" fill="#FFFFFF" height="0.7488" x="22.019" y="0.78336" opacity="0.5" width="0.70272"/>
</g>
</g></g></g><path stroke='#8c8c8c' stroke-width='2.0952' stroke-linecap='round' stroke-linejoin='round' fill='none' d='M116.67,200.212L116.67,201.26' />
<path stroke='#8c8c8c' stroke-width='2.0952' stroke-linecap='round' stroke-linejoin='round' fill='none' d='M116.67,173.502L116.67,172.455' />
<g partID='854187250'><g transform='translate(113.038,202.307)' ><g transform='matrix(0,-1,1,0,0,0)'  ><g xmlns="http://www.w3.org/2000/svg" id="breadboard">
 <rect xmlns="http://www.w3.org/2000/svg" id="connector0pin" fill="none" height="0.72" x="0.36" y="2.5848" width="0.72"/>
 <rect xmlns="http://www.w3.org/2000/svg" id="connector1pin" fill="none" height="0.72" x="29.8202" y="2.5848" width="0.72"/>
 <line xmlns="http://www.w3.org/2000/svg" id="connector0leg" stroke-width="2.0952" fill="none" y1="3.6324" y2="3.6324" stroke="#8C8C8C" x1="1.0476" x2="2.0952" stroke-linecap="round"/>
 <line xmlns="http://www.w3.org/2000/svg" id="connector1leg" stroke-width="2.0952" fill="none" y1="3.6324" y2="3.6324" stroke="#8C8C8C" x1="29.8526" x2="28.805" stroke-linecap="round"/>
 <path xmlns="http://www.w3.org/2000/svg" stroke-width="2.0952" fill="none" stroke="#8C8C8C" d="M1.0476,3.6324l28.3666,0"/>
 <path xmlns="http://www.w3.org/2000/svg" id="body" fill="#D9B477" d="M10.2478,0.49536c-0.36,-0.1656,-0.9792,-0.2952,-1.3752,-0.2952l-1.9872,0c-0.396,0,-0.72,0.324,-0.72,0.72l0,5.35608c0,0.39672,0.324,0.72,0.72,0.72l1.9872,0c0.396,0,1.0152,-0.13608,1.3752,-0.2952l0.072,-0.03528c0.36,-0.1656,0.9792,-0.2952,1.3752,-0.2952l7.1856,0c0.39672,0,1.01448,0.13608,1.37448,0.2952l0.07272,0.03528c0.36,0.1656,0.97776,0.2952,1.3752,0.2952l1.9872,0c0.39744,0,0.72,-0.32328,0.72,-0.72L24.4102,0.92016c0,-0.396,-0.32256,-0.72,-0.72,-0.72l-1.9872,0c-0.39744,0,-1.0152,0.1368,-1.3752,0.2952l-0.07272,0.036c-0.36,0.1656,-0.97776,0.2952,-1.37448,0.2952l-7.1856,0c-0.396,0,-1.0152,-0.1368,-1.3752,-0.2952L10.2478,0.49536z"/>
 <rect xmlns="http://www.w3.org/2000/svg" id="gold_band" fill="#ad9f4e" height="6.79536" x="22.019" y="0.19368" width="0.70272"/>
 <rect xmlns="http://www.w3.org/2000/svg" id="band_rd_multiplier" fill="#ff4d00" height="5.5368" x="16.1726" y="0.82656" width="1.8504"/>
 <rect xmlns="http://www.w3.org/2000/svg" id="band_2_nd" fill="#000000" height="5.5368" x="12.4726" y="0.82656" width="1.8504"/>
 <path xmlns="http://www.w3.org/2000/svg" id="band_1_st" fill="#8a3d06" d="M10.6286,0.63936c-0.1152,-0.036,-0.2232,-0.072,-0.3096,-0.1152l-0.072,-0.036c-0.36,-0.16488,-0.9792,-0.2952,-1.3752,-0.2952l-0.0864,0l0,6.79608l0.0864,0c0.396,0,1.0152,-0.13608,1.3752,-0.2952l0.072,-0.03528c0.0864,-0.04464,0.1944,-0.07992,0.3096,-0.1152L10.6286,0.63936z"/>
 <path xmlns="http://www.w3.org/2000/svg" id="Shadow" d="M23.711,4.0896L23.711,4.0896c0,0.37944,-0.13032,0.69912,-0.2952,0.69912l-1.9224,0c-0.38016,0,-0.97776,-0.05616,-1.33272,-0.1224L20.088,4.65048c-0.34488,-0.0648,-0.94896,-0.1224,-1.33344,-0.1224L11.808,4.52808c-0.3816,0,-0.9792,0.0576,-1.332,0.1224l-0.072,0.01512c-0.3456,0.06552,-0.9432,0.1224,-1.332,0.1224l-0.3168,0l-1.0008,0l-0.3096,0c-0.3816,0,-0.6984,0.29376,-0.6984,0.64512l0,0.24696L6.7464,5.8392l0,0.1728c0,0.36,0.3168,0.64512,0.6984,0.64512l1.62,0c0.3816,0,0.9792,-0.1224,1.332,-0.26712l0.072,-0.02808c0.3456,-0.14112,0.9504,-0.26496,1.332,-0.26496l6.94656,0c0.37944,0,0.97704,0.12384,1.33416,0.26568l0.07416,0.02808c0.34488,0.14472,0.94464,0.26712,1.33344,0.26712l2.2248,0c0.38088,0,0.69912,-0.2952,0.69912,-0.64512L24.413,5.472L24.413,4.49928L24.413,2.65536C24.1358,2.76336,23.711,3.06576,23.711,4.0896z" opacity="0.3"/>
 <rect xmlns="http://www.w3.org/2000/svg" id="ShadowExtra" height="3.15288" x="22.019" y="3.48336" opacity="0.4" width="0.70272"/>
 <path xmlns="http://www.w3.org/2000/svg" id="ReflexRight" fill="#FFFFFF" d="M19.751,1.08576c0.22968,0,0.49104,-0.1008,0.6624,-0.1728c0.2016,-0.0792,0.57672,-0.144,0.96624,-0.144l1.46088,0c0.22464,0,0.22464,0.2448,0.22464,0.3744c0,0.1296,-0.01512,0.3816,-0.22464,0.3816l-3.06,0c-0.10728,0,-0.2304,-0.1152,-0.2304,-0.22392C19.5566,1.21536,19.6286,1.08576,19.751,1.08576z" opacity="0.25"/>
 <circle xmlns="http://www.w3.org/2000/svg" id="ReflexLeft" fill="#FFFFFF" cx="6.99984" cy="1.13616" r="0.432" opacity="0.35"/>
 <rect xmlns="http://www.w3.org/2000/svg" id="Reflex_gold" fill="#FFFF33" height="1.62" x="22.019" y="0.42336" opacity="0.5" width="0.70272"/>
 <rect xmlns="http://www.w3.org/2000/svg" id="Reflex_extra" fill="#FFFFFF" height="0.7488" x="22.019" y="0.78336" opacity="0.5" width="0.70272"/>
</g>
</g></g></g><path stroke='#8c8c8c' stroke-width='2.0952' stroke-linecap='round' stroke-linejoin='round' fill='none' d='M20.9094,205.735L20.9094,206.783' />
<path stroke='#8c8c8c' stroke-width='2.0952' stroke-linecap='round' stroke-linejoin='round' fill='none' d='M20.9094,179.025L20.9094,177.978' />
<g partID='854180910'><g transform='translate(17.277,207.83)' ><g transform='matrix(0,-1,1,0,0,0)'  ><g xmlns="http://www.w3.org/2000/svg" id="breadboard">
 <rect xmlns="http://www.w3.org/2000/svg" id="connector0pin" fill="none" height="0.72" x="0.36" y="2.5848" width="0.72"/>
 <rect xmlns="http://www.w3.org/2000/svg" id="connector1pin" fill="none" height="0.72" x="29.8202" y="2.5848" width="0.72"/>
 <line xmlns="http://www.w3.org/2000/svg" id="connector0leg" stroke-width="2.0952" fill="none" y1="3.6324" y2="3.6324" stroke="#8C8C8C" x1="1.0476" x2="2.0952" stroke-linecap="round"/>
 <line xmlns="http://www.w3.org/2000/svg" id="connector1leg" stroke-width="2.0952" fill="none" y1="3.6324" y2="3.6324" stroke="#8C8C8C" x1="29.8526" x2="28.805" stroke-linecap="round"/>
 <path xmlns="http://www.w3.org/2000/svg" stroke-width="2.0952" fill="none" stroke="#8C8C8C" d="M1.0476,3.6324l28.3666,0"/>
 <path xmlns="http://www.w3.org/2000/svg" id="body" fill="#D9B477" d="M10.2478,0.49536c-0.36,-0.1656,-0.9792,-0.2952,-1.3752,-0.2952l-1.9872,0c-0.396,0,-0.72,0.324,-0.72,0.72l0,5.35608c0,0.39672,0.324,0.72,0.72,0.72l1.9872,0c0.396,0,1.0152,-0.13608,1.3752,-0.2952l0.072,-0.03528c0.36,-0.1656,0.9792,-0.2952,1.3752,-0.2952l7.1856,0c0.39672,0,1.01448,0.13608,1.37448,0.2952l0.07272,0.03528c0.36,0.1656,0.97776,0.2952,1.3752,0.2952l1.9872,0c0.39744,0,0.72,-0.32328,0.72,-0.72L24.4102,0.92016c0,-0.396,-0.32256,-0.72,-0.72,-0.72l-1.9872,0c-0.39744,0,-1.0152,0.1368,-1.3752,0.2952l-0.07272,0.036c-0.36,0.1656,-0.97776,0.2952,-1.37448,0.2952l-7.1856,0c-0.396,0,-1.0152,-0.1368,-1.3752,-0.2952L10.2478,0.49536z"/>
 <rect xmlns="http://www.w3.org/2000/svg" id="gold_band" fill="#ad9f4e" height="6.79536" x="22.019" y="0.19368" width="0.70272"/>
 <rect xmlns="http://www.w3.org/2000/svg" id="band_rd_multiplier" fill="#8a3d06" height="5.5368" x="16.1726" y="0.82656" width="1.8504"/>
 <rect xmlns="http://www.w3.org/2000/svg" id="band_2_nd" fill="#c40808" height="5.5368" x="12.4726" y="0.82656" width="1.8504"/>
 <path xmlns="http://www.w3.org/2000/svg" id="band_1_st" fill="#c40808" d="M10.6286,0.63936c-0.1152,-0.036,-0.2232,-0.072,-0.3096,-0.1152l-0.072,-0.036c-0.36,-0.16488,-0.9792,-0.2952,-1.3752,-0.2952l-0.0864,0l0,6.79608l0.0864,0c0.396,0,1.0152,-0.13608,1.3752,-0.2952l0.072,-0.03528c0.0864,-0.04464,0.1944,-0.07992,0.3096,-0.1152L10.6286,0.63936z"/>
 <path xmlns="http://www.w3.org/2000/svg" id="Shadow" d="M23.711,4.0896L23.711,4.0896c0,0.37944,-0.13032,0.69912,-0.2952,0.69912l-1.9224,0c-0.38016,0,-0.97776,-0.05616,-1.33272,-0.1224L20.088,4.65048c-0.34488,-0.0648,-0.94896,-0.1224,-1.33344,-0.1224L11.808,4.52808c-0.3816,0,-0.9792,0.0576,-1.332,0.1224l-0.072,0.01512c-0.3456,0.06552,-0.9432,0.1224,-1.332,0.1224l-0.3168,0l-1.0008,0l-0.3096,0c-0.3816,0,-0.6984,0.29376,-0.6984,0.64512l0,0.24696L6.7464,5.8392l0,0.1728c0,0.36,0.3168,0.64512,0.6984,0.64512l1.62,0c0.3816,0,0.9792,-0.1224,1.332,-0.26712l0.072,-0.02808c0.3456,-0.14112,0.9504,-0.26496,1.332,-0.26496l6.94656,0c0.37944,0,0.97704,0.12384,1.33416,0.26568l0.07416,0.02808c0.34488,0.14472,0.94464,0.26712,1.33344,0.26712l2.2248,0c0.38088,0,0.69912,-0.2952,0.69912,-0.64512L24.413,5.472L24.413,4.49928L24.413,2.65536C24.1358,2.76336,23.711,3.06576,23.711,4.0896z" opacity="0.3"/>
 <rect xmlns="http://www.w3.org/2000/svg" id="ShadowExtra" height="3.15288" x="22.019" y="3.48336" opacity="0.4" width="0.70272"/>
 <path xmlns="http://www.w3.org/2000/svg" id="ReflexRight" fill="#FFFFFF" d="M19.751,1.08576c0.22968,0,0.49104,-0.1008,0.6624,-0.1728c0.2016,-0.0792,0.57672,-0.144,0.96624,-0.144l1.46088,0c0.22464,0,0.22464,0.2448,0.22464,0.3744c0,0.1296,-0.01512,0.3816,-0.22464,0.3816l-3.06,0c-0.10728,0,-0.2304,-0.1152,-0.2304,-0.22392C19.5566,1.21536,19.6286,1.08576,19.751,1.08576z" opacity="0.25"/>
 <circle xmlns="http://www.w3.org/2000/svg" id="ReflexLeft" fill="#FFFFFF" cx="6.99984" cy="1.13616" r="0.432" opacity="0.35"/>
 <rect xmlns="http://www.w3.org/2000/svg" id="Reflex_gold" fill="#FFFF33" height="1.62" x="22.019" y="0.42336" opacity="0.5" width="0.70272"/>
 <rect xmlns="http://www.w3.org/2000/svg" id="Reflex_extra" fill="#FFFFFF" height="0.7488" x="22.019" y="0.78336" opacity="0.5" width="0.70272"/>
</g>
</g></g></g><g partID='854181160'><line stroke-linecap='round' stroke='#1b5bb3' x1='29.103' y1='88.8086' x2='28.8648' y2='127.063' stroke-width='3.2' /><line stroke-linecap='round' stroke='#418dd9' x1='29.103' y1='88.8086' x2='28.8648' y2='127.063' stroke-width='1.6' /></g><g partID='854181440'><line stroke-linecap='round' stroke='#1b5bb3' x1='34.4992' y1='114.378' x2='34.4992' y2='127.063' stroke-width='3.2' /><line stroke-linecap='round' stroke='#418dd9' x1='34.4992' y1='114.378' x2='34.4992' y2='127.063' stroke-width='1.6' /></g><g partID='854181230'><line stroke-linecap='round' stroke='#1b5bb3' x1='46.4918' y1='88.8086' x2='34.4992' y2='114.378' stroke-width='3.2' /><line stroke-linecap='round' stroke='#418dd9' x1='46.4918' y1='88.8086' x2='34.4992' y2='114.378' stroke-width='1.6' /></g><g partID='854181510'><line stroke-linecap='round' stroke='#1b5bb3' x1='40.132' y1='118.353' x2='40.132' y2='127.063' stroke-width='3.2' /><line stroke-linecap='round' stroke='#418dd9' x1='40.132' y1='118.353' x2='40.132' y2='127.063' stroke-width='1.6' /></g><g partID='854181300'><line stroke-linecap='round' stroke='#1b5bb3' x1='63.8806' y1='88.8086' x2='40.132' y2='118.353' stroke-width='3.2' /><line stroke-linecap='round' stroke='#418dd9' x1='63.8806' y1='88.8086' x2='40.132' y2='118.353' stroke-width='1.6' /></g><g partID='854181580'><line stroke-linecap='round' stroke='#1b5bb3' x1='45.7656' y1='121.334' x2='45.7656' y2='127.063' stroke-width='3.2' /><line stroke-linecap='round' stroke='#418dd9' x1='45.7656' y1='121.334' x2='45.7656' y2='127.063' stroke-width='1.6' /></g><g partID='854181370'><line stroke-linecap='round' stroke='#1b5bb3' x1='82.7606' y1='88.8086' x2='45.7656' y2='121.334' stroke-width='3.2' /><line stroke-linecap='round' stroke='#418dd9' x1='82.7606' y1='88.8086' x2='45.7656' y2='121.334' stroke-width='1.6' /></g><g partID='854182590'><line stroke-linecap='round' stroke='#1b5bb3' x1='28.992' y1='54.3562' x2='29.103' y2='60.0036' stroke-width='3.2' /><line stroke-linecap='round' stroke='#418dd9' x1='28.992' y1='54.3562' x2='29.103' y2='60.0036' stroke-width='1.6' /></g><g partID='854182660'><line stroke-linecap='round' stroke='#1b5bb3' x1='46.4344' y1='53.8229' x2='46.4918' y2='60.0036' stroke-width='3.2' /><line stroke-linecap='round' stroke='#418dd9' x1='46.4344' y1='53.8229' x2='46.4918' y2='60.0036' stroke-width='1.6' /></g><g partID='854182730'><line stroke-linecap='round' stroke='#1b5bb3' x1='64.0728' y1='54.3562' x2='63.8806' y2='60.0036' stroke-width='3.2' /><line stroke-linecap='round' stroke='#418dd9' x1='64.0728' y1='54.3562' x2='63.8806' y2='60.0036' stroke-width='1.6' /></g><g partID='854182800'><line stroke-linecap='round' stroke='#1b5bb3' x1='82.7648' y1='54.3562' x2='82.7606' y2='60.0036' stroke-width='3.2' /><line stroke-linecap='round' stroke='#418dd9' x1='82.7648' y1='54.3562' x2='82.7606' y2='60.0036' stroke-width='1.6' /></g><g partID='854183680'><line stroke-linecap='round' stroke='#000000' x1='3.20002' y1='54.3562' x2='3.20002' y2='168.895' stroke-width='3.2' /><line stroke-linecap='round' stroke='#404040' x1='3.20002' y1='54.3562' x2='3.20002' y2='168.895' stroke-width='1.6' /></g><g partID='854183610'><line stroke-linecap='round' stroke='#000000' x1='3.20002' y1='168.895' x2='23.3323' y2='168.895' stroke-width='3.2' /><line stroke-linecap='round' stroke='#404040' x1='3.20002' y1='168.895' x2='23.3323' y2='168.895' stroke-width='1.6' /></g><g partID='854183540'><line stroke-linecap='round' stroke='#000000' x1='21.7899' y1='54.3562' x2='3.20002' y2='54.3562' stroke-width='3.2' /><line stroke-linecap='round' stroke='#404040' x1='21.7899' y1='54.3562' x2='3.20002' y2='54.3562' stroke-width='1.6' /></g><g partID='854183750'><path stroke-linecap='round' fill='none' stroke-width='3.2' stroke='#000000' d='M21.7899,54.3562C21.7899,54.3562, 27.7477,35.347 39.2323,53.8229' /><path stroke-linecap='round' fill='none' stroke-width='1.6' stroke='#404040' d='M21.7899,54.3562C21.7899,54.3562, 27.7477,35.347 39.2323,53.8229' /></g><g partID='854183780'><path stroke-linecap='round' fill='none' stroke-width='3.2' stroke='#000000' d='M39.2323,53.8229C49.8695,34.7423, 56.8709,54.3562 56.8707,54.3562' /><path stroke-linecap='round' fill='none' stroke-width='1.6' stroke='#404040' d='M39.2323,53.8229C49.8695,34.7423, 56.8709,54.3562 56.8707,54.3562' /></g><g partID='854183810'><path stroke-linecap='round' fill='none' stroke-width='3.2' stroke='#000000' d='M56.8707,54.3562C56.8707,54.3562, 63.9403,36.7463 75.5627,54.3562' /><path stroke-linecap='round' fill='none' stroke-width='1.6' stroke='#404040' d='M56.8707,54.3562C56.8707,54.3562, 63.9403,36.7463 75.5627,54.3562' /></g><g partID='854184310'><line stroke-linecap='round' stroke='#1b5bb3' x1='28.9663' y1='168.895' x2='20.9094' y2='177.978' stroke-width='3.2' /><line stroke-linecap='round' stroke='#418dd9' x1='28.9663' y1='168.895' x2='20.9094' y2='177.978' stroke-width='1.6' /></g><g partID='854185630'><line stroke-linecap='round' stroke='#1b5bb3' x1='21.0928' y1='212.501' x2='20.9094' y2='206.783' stroke-width='3.2' /><line stroke-linecap='round' stroke='#418dd9' x1='21.0928' y1='212.501' x2='20.9094' y2='206.783' stroke-width='1.6' /></g><g partID='854186050'><line stroke-linecap='round' stroke='#ad6a38' x1='57.1352' y1='186.057' x2='109.067' y2='186.057' stroke-width='3.2' /><line stroke-linecap='round' stroke='#ef6100' x1='57.1352' y1='186.057' x2='109.067' y2='186.057' stroke-width='1.6' /></g><g partID='854185980'><line stroke-linecap='round' stroke='#ad6a38' x1='109.066' y1='186.057' x2='109.066' y2='125.523' stroke-width='3.2' /><line stroke-linecap='round' stroke='#ef6100' x1='109.066' y1='186.057' x2='109.066' y2='125.523' stroke-width='1.6' /></g><g partID='854185910'><line stroke-linecap='round' stroke='#ad6a38' x1='109.066' y1='125.524' x2='130.885' y2='125.524' stroke-width='3.2' /><line stroke-linecap='round' stroke='#ef6100' x1='109.066' y1='125.524' x2='130.885' y2='125.524' stroke-width='1.6' /></g><g partID='854185840'><line stroke-linecap='round' stroke='#ad6a38' x1='130.885' y1='125.524' x2='130.885' y2='138.277' stroke-width='3.2' /><line stroke-linecap='round' stroke='#ef6100' x1='130.885' y1='125.524' x2='130.885' y2='138.277' stroke-width='1.6' /></g><g partID='854185700'><line stroke-linecap='round' stroke='#ad6a38' x1='57.1352' y1='168.895' x2='57.1352' y2='186.057' stroke-width='3.2' /><line stroke-linecap='round' stroke='#ef6100' x1='57.1352' y1='168.895' x2='57.1352' y2='186.057' stroke-width='1.6' /></g><g partID='854186330'><line stroke-linecap='round' stroke='#ad6a38' x1='62.768' y1='179.657' x2='102.933' y2='179.657' stroke-width='3.2' /><line stroke-linecap='round' stroke='#ef6100' x1='62.768' y1='179.657' x2='102.933' y2='179.657' stroke-width='1.6' /></g><g partID='854186260'><line stroke-linecap='round' stroke='#ad6a38' x1='102.934' y1='179.657' x2='102.934' y2='115.923' stroke-width='3.2' /><line stroke-linecap='round' stroke='#ef6100' x1='102.934' y1='179.657' x2='102.934' y2='115.923' stroke-width='1.6' /></g><g partID='854186190'><line stroke-linecap='round' stroke='#ad6a38' x1='102.934' y1='115.924' x2='138.068' y2='115.924' stroke-width='3.2' /><line stroke-linecap='round' stroke='#ef6100' x1='102.934' y1='115.924' x2='138.068' y2='115.924' stroke-width='1.6' /></g><g partID='854186120'><line stroke-linecap='round' stroke='#ad6a38' x1='138.068' y1='115.924' x2='138.067' y2='138.297' stroke-width='3.2' /><line stroke-linecap='round' stroke='#ef6100' x1='138.068' y1='115.924' x2='138.067' y2='138.297' stroke-width='1.6' /></g><g partID='854185770'><line stroke-linecap='round' stroke='#ad6a38' x1='62.7678' y1='168.895' x2='62.768' y2='179.657' stroke-width='3.2' /><line stroke-linecap='round' stroke='#ef6100' x1='62.7678' y1='168.895' x2='62.768' y2='179.657' stroke-width='1.6' /></g><g partID='854186540'><line stroke-linecap='round' stroke='#1b5bb3' x1='200.634' y1='175.124' x2='200.634' y2='158.459' stroke-width='3.2' /><line stroke-linecap='round' stroke='#418dd9' x1='200.634' y1='175.124' x2='200.634' y2='158.459' stroke-width='1.6' /></g><g partID='854186470'><line stroke-linecap='round' stroke='#1b5bb3' x1='123.685' y1='175.124' x2='200.634' y2='175.124' stroke-width='3.2' /><line stroke-linecap='round' stroke='#418dd9' x1='123.685' y1='175.124' x2='200.634' y2='175.124' stroke-width='1.6' /></g><g partID='854186400'><line stroke-linecap='round' stroke='#1b5bb3' x1='123.685' y1='158.891' x2='123.685' y2='175.124' stroke-width='3.2' /><line stroke-linecap='round' stroke='#418dd9' x1='123.685' y1='158.891' x2='123.685' y2='175.124' stroke-width='1.6' /></g><g partID='854186750'><line stroke-linecap='round' stroke='#1b5bb3' x1='130.885' y1='185.79' x2='207.834' y2='185.79' stroke-width='3.2' /><line stroke-linecap='round' stroke='#418dd9' x1='130.885' y1='185.79' x2='207.834' y2='185.79' stroke-width='1.6' /></g><g partID='854186680'><line stroke-linecap='round' stroke='#1b5bb3' x1='207.834' y1='185.79' x2='207.834' y2='158.459' stroke-width='3.2' /><line stroke-linecap='round' stroke='#418dd9' x1='207.834' y1='185.79' x2='207.834' y2='158.459' stroke-width='1.6' /></g><g partID='854186610'><line stroke-linecap='round' stroke='#1b5bb3' x1='130.885' y1='158.891' x2='130.885' y2='185.79' stroke-width='3.2' /><line stroke-linecap='round' stroke='#418dd9' x1='130.885' y1='158.891' x2='130.885' y2='185.79' stroke-width='1.6' /></g><g partID='854187180'><line stroke-linecap='round' stroke='#00a527' x1='123.685' y1='132.724' x2='149.333' y2='132.724' stroke-width='3.2' /><line stroke-linecap='round' stroke='#25cc35' x1='123.685' y1='132.724' x2='149.333' y2='132.724' stroke-width='1.6' /></g><g partID='854187110'><line stroke-linecap='round' stroke='#00a527' x1='149.334' y1='132.724' x2='149.334' y2='195.924' stroke-width='3.2' /><line stroke-linecap='round' stroke='#25cc35' x1='149.334' y1='132.724' x2='149.334' y2='195.924' stroke-width='1.6' /></g><g partID='854187040'><line stroke-linecap='round' stroke='#00a527' x1='149.334' y1='195.924' x2='215.035' y2='195.924' stroke-width='3.2' /><line stroke-linecap='round' stroke='#25cc35' x1='149.334' y1='195.924' x2='215.035' y2='195.924' stroke-width='1.6' /></g><g partID='854186970'><line stroke-linecap='round' stroke='#00a527' x1='215.035' y1='195.924' x2='215.034' y2='158.459' stroke-width='3.2' /><line stroke-linecap='round' stroke='#25cc35' x1='215.035' y1='195.924' x2='215.034' y2='158.459' stroke-width='1.6' /></g><g partID='854186900'><line stroke-linecap='round' stroke='#00a527' x1='123.685' y1='138.277' x2='123.685' y2='132.724' stroke-width='3.2' /><line stroke-linecap='round' stroke='#25cc35' x1='123.685' y1='138.277' x2='123.685' y2='132.724' stroke-width='1.6' /></g><g partID='854187270'><line stroke-linecap='round' stroke='#1b5bb3' x1='116.67' y1='172.455' x2='116.491' y2='158.891' stroke-width='3.2' /><line stroke-linecap='round' stroke='#418dd9' x1='116.67' y1='172.455' x2='116.491' y2='158.891' stroke-width='1.6' /></g><g partID='854187610'><line stroke-linecap='round' stroke='#8c0000' x1='93.8664' y1='103.657' x2='117.066' y2='103.657' stroke-width='3.2' /><line stroke-linecap='round' stroke='#cc1414' x1='93.8664' y1='103.657' x2='117.066' y2='103.657' stroke-width='1.6' /></g><g partID='854187480'><line stroke-linecap='round' stroke='#8c0000' x1='23.232' y1='103.657' x2='93.8667' y2='103.657' stroke-width='3.2' /><line stroke-linecap='round' stroke='#cc1414' x1='23.232' y1='103.657' x2='93.8667' y2='103.657' stroke-width='1.6' /></g><g partID='854187410'><line stroke-linecap='round' stroke='#8c0000' x1='117.066' y1='103.657' x2='116.482' y2='138.277' stroke-width='3.2' /><line stroke-linecap='round' stroke='#cc1414' x1='117.066' y1='103.657' x2='116.482' y2='138.277' stroke-width='1.6' /></g><g partID='854187340'><line stroke-linecap='round' stroke='#8c0000' x1='23.2318' y1='127.063' x2='23.232' y2='103.657' stroke-width='3.2' /><line stroke-linecap='round' stroke='#cc1414' x1='23.2318' y1='127.063' x2='23.232' y2='103.657' stroke-width='1.6' /></g><g partID='854187710'><line stroke-linecap='round' stroke='#8c0000' x1='93.8664' y1='201.259' x2='116.67' y2='201.26' stroke-width='3.2' /><line stroke-linecap='round' stroke='#cc1414' x1='93.8664' y1='201.259' x2='116.67' y2='201.26' stroke-width='1.6' /></g><g partID='854187680'><line stroke-linecap='round' stroke='#8c0000' x1='93.8664' y1='103.657' x2='93.8664' y2='201.259' stroke-width='3.2' /><line stroke-linecap='round' stroke='#cc1414' x1='93.8664' y1='103.657' x2='93.8664' y2='201.259' stroke-width='1.6' /></g><g partID='854188020'><line stroke-linecap='round' stroke='#8c0000' x1='193.434' y1='201.259' x2='193.434' y2='158.459' stroke-width='3.2' /><line stroke-linecap='round' stroke='#cc1414' x1='193.434' y1='201.259' x2='193.434' y2='158.459' stroke-width='1.6' /></g><g partID='854187950'><line stroke-linecap='round' stroke='#8c0000' x1='116.67' y1='201.26' x2='193.434' y2='201.259' stroke-width='3.2' /><line stroke-linecap='round' stroke='#cc1414' x1='116.67' y1='201.26' x2='193.434' y2='201.259' stroke-width='1.6' /></g><g partID='854223330'><line stroke-linecap='round' stroke='#000000' x1='73.2' y1='214.857' x2='23.3323' y2='168.895' stroke-width='3.2' /><line stroke-linecap='round' stroke='#404040' x1='73.2' y1='214.857' x2='23.3323' y2='168.895' stroke-width='1.6' /></g><g partID='854223550'><line stroke-linecap='round' stroke='#000000' x1='138.064' y1='214.857' x2='73.2' y2='214.857' stroke-width='3.2' /><line stroke-linecap='round' stroke='#404040' x1='138.064' y1='214.857' x2='73.2' y2='214.857' stroke-width='1.6' /></g><g partID='854223340'><line stroke-linecap='round' stroke='#000000' x1='138.064' y1='158.891' x2='138.064' y2='214.857' stroke-width='3.2' /><line stroke-linecap='round' stroke='#404040' x1='138.064' y1='158.891' x2='138.064' y2='214.857' stroke-width='1.6' /></g><g partID='854223820'><line stroke-linecap='round' stroke='#000000' x1='13.8907' y1='168.895' x2='23.3323' y2='168.895' stroke-width='3.2' /><line stroke-linecap='round' stroke='#404040' x1='13.8907' y1='168.895' x2='23.3323' y2='168.895' stroke-width='1.6' /></g><g partID='854223830'><line stroke-linecap='round' stroke='#000000' x1='13.8907' y1='212.501' x2='13.8907' y2='168.895' stroke-width='3.2' /><line stroke-linecap='round' stroke='#404040' x1='13.8907' y1='212.501' x2='13.8907' y2='168.895' stroke-width='1.6' /></g><g partID='854224490'><line stroke-linecap='round' stroke='#000000' x1='222.4' y1='214.99' x2='138.064' y2='214.99' stroke-width='3.2' /><line stroke-linecap='round' stroke='#404040' x1='222.4' y1='214.99' x2='138.064' y2='214.99' stroke-width='1.6' /></g><g partID='854224320'><line stroke-linecap='round' stroke='#000000' x1='138.064' y1='214.99' x2='138.064' y2='158.891' stroke-width='3.2' /><line stroke-linecap='round' stroke='#404040' x1='138.064' y1='214.99' x2='138.064' y2='158.891' stroke-width='1.6' /></g><g partID='854224140'><line stroke-linecap='round' stroke='#000000' x1='222.4' y1='158.99' x2='222.4' y2='214.99' stroke-width='3.2' /><line stroke-linecap='round' stroke='#404040' x1='222.4' y1='158.99' x2='222.4' y2='214.99' stroke-width='1.6' /></g><g partID='854224150'><line stroke-linecap='round' stroke='#000000' x1='222.248' y1='158.459' x2='222.4' y2='158.99' stroke-width='3.2' /><line stroke-linecap='round' stroke='#404040' x1='222.248' y1='158.459' x2='222.4' y2='158.99' stroke-width='1.6' /></g><g partID='854208530'><line stroke-linecap='round' stroke='#ef6100' x1='116.67' y1='201.26' x2='116.482' y2='138.277' stroke-width='0.8' /></g></svg>